<svg width="263" height="304" viewBox="0 0 263 304" fill="none" xmlns="http://www.w3.org/2000/svg">
<g clip-path="url(#clip0)">
<path d="M259.829 295.724C259.829 295.724 231.389 309.093 212.347 300.324C193.305 291.554 134.48 287.63 97.8544 295.724C43.6161 307.709 27.5016 288.138 33.1953 275.245L77.0152 269.576C77.0152 269.576 133.597 271.62 175.974 272.131C218.351 272.642 257.862 288.649 259.829 295.724Z" fill="#EF9E20"/>
<path d="M230.103 253.68C230.103 269.516 178.592 282.354 115.051 282.354C51.5096 282.354 -0.000488281 269.516 -0.000488281 253.68C-0.000488281 237.844 51.5096 225.006 115.051 225.006C178.592 225.006 230.103 237.844 230.103 253.68Z" fill="#EF9E20"/>
<path d="M71.7678 252.662C71.7678 252.662 30.3852 261.438 39.4786 284.104C45.9773 300.305 122.558 282.354 160.778 283.26C188.125 283.907 209.403 289.561 217.148 293.177C262.649 314.415 283.135 282.661 232.535 271.175C207.406 265.471 187.268 264.916 159.085 266.285C114.96 268.429 68.5938 277.383 66.2176 273.569C62.3248 267.32 96.4451 257.636 96.4451 257.636C96.4451 257.636 92.2224 244.928 71.7678 252.662" fill="#3C2A34"/>
<path d="M66.4529 91.8581C66.4529 91.8581 58.5639 113.627 37.6783 146.575C21.4668 172.146 -4.90631 253.001 112.039 258.964C228.984 264.926 202.765 195.286 192.075 157.612C181.387 119.937 196.91 42.4692 151.37 35.488C105.832 28.5077 108.265 34.5729 91.7772 45.4403C87.0183 48.5768 66.4529 91.8581 66.4529 91.8581Z" fill="#FFFAEF"/>
<path d="M196.37 172.56C196.37 172.56 155.736 170.511 151.572 133.774C151.572 133.774 165.561 167.126 193.748 162.948C193.748 162.948 195.394 168.938 196.37 172.56" fill="#F4EFD7"/>
<path d="M90.1715 166.701C90.1715 166.701 76.0934 186.676 59.3205 176.103C42.5477 165.529 33.1943 154.67 33.1943 154.67L39.3582 142.676C39.3582 142.676 54.1028 175.347 90.1715 166.701Z" fill="#F4EFD7"/>
<path d="M31.3735 158.614C31.3735 158.614 2.56063 230.255 80.3444 234.52C158.128 238.786 202.153 231.995 200.825 191.912C200.825 191.912 216.012 243.605 170.17 254.469C128.663 264.307 67.6777 263.185 46.6144 242.438C25.5503 221.69 12.3222 187.238 31.3735 158.614Z" fill="#F4EFD7"/>
<path d="M156.617 40.9822L214.979 40.4794C214.979 40.4794 210.62 58.0998 157.529 66.5796L156.617 40.9822Z" fill="#3C2A34"/>
<path d="M171.199 45.9404L203.56 47.2801C203.56 47.2801 192.347 56.1991 177.026 58.2184L171.199 45.9404Z" fill="#F58981"/>
<path d="M113.396 43.5758L88.2081 -2.30987C88.2081 -2.30987 81.9945 32.3483 85.7708 55.175L113.396 43.5758Z" fill="#3C2A34"/>
<path d="M102.635 36.069L91.5028 12.557C91.5028 12.557 88.7468 30.342 87.5815 47.431C87.5815 47.431 101.012 41.8751 102.635 36.069" fill="#F58981"/>
<path d="M130.493 32.8931C130.493 32.8931 145.271 87.9935 113.847 98.8275C82.4212 109.662 66.4526 91.8577 66.4526 91.8577C66.4526 91.8577 73.9195 74.7719 79.6971 60.6059C90.1391 35.0044 115.912 30.6236 130.493 32.8931Z" fill="#3C2A34"/>
<path d="M143.844 34.3935C143.844 34.3935 129.243 89.6749 147.464 100.824C165.686 111.972 185.987 97.7464 185.987 97.7464C185.987 97.7464 191.019 34.6909 143.844 34.3935Z" fill="#3C2A34"/>
<path d="M135.047 102.557L135.541 111.42L137.316 111.871L135.692 102.72L135.047 102.557Z" fill="#3C2A34"/>
<path d="M127.503 122.436C127.503 122.436 135.57 99.8394 153.238 107.327C153.238 107.327 139.847 105.267 127.503 122.436Z" fill="#3C2A34"/>
<path d="M90.292 71.5032L121.061 71.6972C121.061 71.6972 126.631 90.4829 107.145 92.0238C87.655 93.5656 90.292 71.5032 90.292 71.5032Z" fill="#FAB217"/>
<path d="M93.7486 68.4494L117.77 68.601C117.77 68.601 122.119 83.2666 106.904 84.4702C91.6902 85.6746 93.7486 68.4494 93.7486 68.4494Z" fill="#3C2A34"/>
<path d="M119.408 74.4354C119.402 75.401 118.614 76.1792 117.649 76.1727C116.684 76.167 115.906 75.379 115.912 74.4134C115.919 73.4485 116.706 72.6703 117.671 72.6768C118.636 72.6834 119.415 73.4697 119.408 74.4354Z" fill="#FFFAEF"/>
<path d="M145.397 71.8507L176.167 72.0446C176.167 72.0446 181.738 90.8303 162.25 92.3704C142.76 93.913 145.397 71.8507 145.397 71.8507Z" fill="#FAB217"/>
<path d="M148.854 68.7964L172.875 68.948C172.875 68.948 177.223 83.6136 162.01 84.8171C146.794 86.0216 148.854 68.7964 148.854 68.7964Z" fill="#3C2A34"/>
<path d="M174.514 74.7828C174.507 75.7484 173.72 76.5258 172.754 76.5201C171.789 76.5144 171.011 75.7264 171.018 74.7608C171.024 73.7951 171.812 73.0177 172.776 73.0242C173.743 73.0299 174.519 73.8171 174.514 74.7828Z" fill="#FFFAEF"/>
<path d="M122.558 88.2642C122.558 88.2642 113.433 103.382 89.4043 95.3285C89.4043 95.3285 106.923 101.534 122.558 88.2642Z" fill="#6E7C7D"/>
<path d="M124.499 59.0547L124.443 68.0609L88.4487 67.8343L122.696 66.3602L124.499 59.0547Z" fill="#6E7C7D"/>
<path d="M144.678 60.9392L145.306 69.8932L177.858 69.5501L147.391 68.2055L144.678 60.9392Z" fill="#6E7C7D"/>
<path d="M146.636 88.4158C146.636 88.4158 159.786 111.449 175.973 89.9804C175.973 89.9804 162.312 108.58 146.636 88.4158Z" fill="#6E7C7D"/>
<path d="M169.677 44.027C169.677 44.027 184.068 43.6668 187.973 52.5866C187.973 52.5866 177.871 45.3544 169.368 45.4359C169.368 45.4359 182.053 47.2303 184.553 55.7785C184.553 55.7785 175.869 45.5337 167.993 46.787L169.677 44.027Z" fill="#3C2A34"/>
<path d="M106.573 37.6009C106.573 37.6009 100.002 24.7941 90.301 25.6326C90.301 25.6326 101.486 31.0419 105.484 38.547C105.484 38.547 97.8388 28.2688 89.1357 30.1642C89.1357 30.1642 102.286 32.886 104.955 40.4017L106.573 37.6009Z" fill="#3C2A34"/>
<path d="M128.212 101.634L71.2383 83.419C71.2383 83.419 101.577 95.7997 128.212 101.634Z" fill="#DBECCC"/>
<path d="M128.212 101.634L65.9834 98.7121C65.9834 98.7121 99.7231 103.119 128.212 101.634Z" fill="#DBECCC"/>
<path d="M124.443 102.685L67.2241 113.682C67.2241 113.682 98.6659 110.309 124.443 102.685Z" fill="#DBECCC"/>
<path d="M141.712 97.7827L196.985 74.9242C196.985 74.9242 167.773 89.7683 141.712 97.7827Z" fill="#DBECCC"/>
<path d="M141.712 97.7827L203.484 89.73C203.484 89.73 170.226 96.9092 141.712 97.7827Z" fill="#DBECCC"/>
<path d="M145.552 98.5188L203.485 104.751C203.485 104.751 171.872 103.987 145.552 98.5188Z" fill="#DBECCC"/>
<path d="M177.942 106.415C177.942 106.415 159.082 108.077 145.895 133.739C145.895 133.739 152.926 103.809 177.942 106.415Z" fill="#DBECCC"/>
<path d="M177.555 185.879C177.555 185.879 118.997 117.31 59.8252 190.856C59.8252 190.856 106.899 125.708 177.555 185.879Z" fill="#DBECCC"/>
<path d="M24.1978 208.968C24.1978 208.968 58.3173 241.053 52.3947 252.435C41.4434 273.484 14.9439 257.573 5.79598 238.85C-5.71843 215.283 -0.326292 186.643 24.1978 208.968Z" fill="#3C2A34"/>
<path d="M194.572 166.23C194.572 166.23 158.039 160.974 151.977 136.291C148.689 122.903 166.439 107.312 177.618 107.474C188.797 107.637 177.714 121.279 177.651 131.151C177.642 132.599 188.534 136.053 188.534 136.053C188.534 136.053 193.136 155.387 194.572 166.23" fill="#3C2A34"/>
<path d="M36.347 238.31C36.347 238.31 26.6832 220.492 19.9286 227.971C13.1707 235.447 23.4734 250.198 33.0842 250.781C42.6975 251.361 36.347 238.31 36.347 238.31Z" fill="#DF9FA1"/>
<path d="M24.5608 215.331C24.5608 215.331 28.0241 220.901 24.3677 221.736C19.6845 222.804 19.7024 209.412 24.5608 215.331Z" fill="#DF9FA1"/>
<path d="M16.096 218.519C16.096 218.519 20.9886 222.886 17.716 224.718C13.5251 227.063 9.76514 214.21 16.096 218.519Z" fill="#DF9FA1"/>
<path d="M10.0075 225.496C10.0075 225.496 16.2806 227.411 14.0771 230.445C11.2551 234.331 2.45348 224.236 10.0075 225.496Z" fill="#DF9FA1"/>
<path d="M205.904 208.968C205.904 208.968 171.785 241.053 177.707 252.435C188.659 273.484 215.158 257.573 224.306 238.85C235.821 215.283 230.429 186.643 205.904 208.968Z" fill="#3C2A34"/>
<path d="M193.756 238.31C193.756 238.31 203.42 220.492 210.175 227.971C216.932 235.447 206.631 250.198 197.019 250.781C187.406 251.361 193.756 238.31 193.756 238.31Z" fill="#DF9FA1"/>
<path d="M205.541 215.331C205.541 215.331 202.079 220.901 205.734 221.736C210.418 222.804 210.401 209.412 205.541 215.331Z" fill="#DF9FA1"/>
<path d="M214.008 218.519C214.008 218.519 209.114 222.886 212.388 224.718C216.578 227.063 220.338 214.21 214.008 218.519Z" fill="#DF9FA1"/>
<path d="M220.095 225.496C220.095 225.496 213.823 227.411 216.026 230.445C218.848 234.331 227.65 224.236 220.095 225.496Z" fill="#DF9FA1"/>
<path d="M129.689 95.7228C129.689 95.7228 138.217 91.1896 140.494 95.3708C140.494 95.3708 136.671 104.772 135.672 104.71C134.671 104.648 129.689 95.7228 129.689 95.7228Z" fill="#F58981"/>
<path d="M118.506 47.6263C118.506 47.6263 109.26 51.7749 96.2471 50.4043C96.2471 50.4043 109.108 54.5863 118.506 47.6263Z" fill="#6E7C7D"/>
<path d="M170.221 51.3315C170.221 51.3315 160.089 51.1041 148.927 44.2762C148.927 44.2762 158.745 53.5781 170.221 51.3315Z" fill="#6E7C7D"/>
<path d="M174.201 109.973L166.119 122.678C166.119 122.678 174.69 118.401 174.201 109.973Z" fill="#6E7C7D"/>
<path d="M179.824 112.139L171.741 124.842C171.741 124.842 180.312 120.566 179.824 112.139Z" fill="#6E7C7D"/>
<path d="M56.5127 159.02L165.643 138.694L177.941 209.083L68.1322 229.707L56.5127 159.02Z" fill="#FAB217"/>
<g opacity="0.199997">
<g opacity="0.199997">
<path opacity="0.199997" d="M59.2979 175.959C59.2979 175.959 73.6269 188.5 89.6558 167.212C89.6558 167.212 72.0746 178.963 58.1831 169.179L59.2979 175.959Z" fill="#BC8611"/>
</g>
</g>
<path d="M54.4536 117.682C54.4536 117.682 62.0092 136.902 67.2254 144.8C72.4423 152.697 95.4263 160.331 90.1727 166.7C90.1727 166.7 75.4305 182.803 53.3469 165.922C42.9709 157.991 37.6782 146.575 37.6782 146.575C37.6782 146.575 41.9124 133.775 54.4536 117.682" fill="#3C2A34"/>
<path d="M70.1909 164.137L83.8403 170.494C83.8403 170.494 78.4824 162.556 70.1909 164.137Z" fill="#6E7C7D"/>
<path d="M74.0044 159.876L87.653 166.23C87.653 166.23 82.2959 158.29 74.0044 159.876Z" fill="#6E7C7D"/>
<path d="M177.943 209.083L68.8296 233.305L56.5142 174.284L58.9507 173.841L70.1913 229.321L177.943 209.083Z" fill="#F4EFD7"/>
<path d="M101.477 193.862C101.759 195.337 101.441 196.75 100.523 198.101C99.6056 199.452 98.2905 200.467 96.5782 201.147L96.3145 213.309L88.4301 214.815L90.3547 201.807L89.2119 201.673C87.6199 201.546 86.3709 201.471 85.4651 201.448C84.5592 201.425 83.6147 201.507 82.6315 201.695C80.1357 202.172 78.1695 202.959 76.733 204.056L76.5061 204.1L74.8923 202.115L74.8382 201.831C77.8446 196.436 80.0905 191.676 81.5759 187.551C83.0612 183.426 83.4824 179.681 82.8395 176.316C82.6228 175.181 82.2476 174.038 81.714 172.886C82.4575 172.469 83.3776 172.156 84.4742 171.947C86.1759 171.622 87.5897 171.842 88.7157 172.606C89.8345 173.333 90.5311 174.415 90.8056 175.852C91.1306 177.554 90.7608 179.722 89.6961 182.355C88.6619 184.943 87.2685 187.6 85.5159 190.326C83.7939 193.007 82.0518 195.378 80.2899 197.439L80.3791 197.598C81.0092 197.203 81.76 196.825 82.6314 196.462C83.5334 196.055 84.4004 195.772 85.2324 195.613C86.1777 195.432 87.3339 195.329 88.7007 195.303C90.0676 195.277 90.9284 195.269 91.2832 195.28L93.3531 181.186L96.9833 180.493L96.7177 194.183C97.9473 193.439 98.9688 192.323 99.782 190.835L99.9738 190.916C100.781 191.859 101.282 192.841 101.477 193.862Z" fill="white"/>
<path d="M118.499 209.659C114.339 210.454 111.147 209.75 108.924 207.549C106.7 205.348 105.17 202.054 104.332 197.667C103.335 192.449 103.223 187.453 103.997 182.68C104.771 177.908 106.361 173.92 108.767 170.716C111.203 167.468 114.294 165.486 118.037 164.771C121.667 164.078 124.621 164.768 126.899 166.841C129.214 168.907 130.776 172.058 131.585 176.293C132.387 180.491 132.586 185.019 132.181 189.878C131.77 194.699 130.456 199.007 128.241 202.801C126.057 206.549 122.81 208.836 118.499 209.659ZM118.423 205.264C120.201 204.925 121.623 203.242 122.691 200.216C123.76 197.19 124.358 193.45 124.487 188.996C124.654 184.535 124.322 180.13 123.492 175.782C123.037 173.399 122.377 171.487 121.514 170.045C120.643 168.565 119.679 167.926 118.62 168.129C116.88 168.461 115.442 170.166 114.306 173.245C113.169 176.323 112.48 180.1 112.237 184.575C111.995 189.05 112.267 193.349 113.054 197.471C114.138 203.143 115.928 205.741 118.423 205.264Z" fill="white"/>
<path d="M161.08 182.476C161.362 183.951 161.044 185.364 160.126 186.715C159.209 188.066 157.893 189.082 156.181 189.762L155.918 201.923L148.033 203.429L149.958 190.421L148.815 190.287C147.223 190.16 145.974 190.085 145.068 190.062C144.162 190.039 143.218 190.121 142.234 190.309C139.739 190.786 137.772 191.573 136.336 192.671L136.109 192.714L134.495 190.729L134.441 190.446C137.448 185.051 139.693 180.29 141.179 176.166C142.664 172.041 143.085 168.296 142.443 164.93C142.226 163.796 141.851 162.652 141.317 161.5C142.06 161.084 142.981 160.771 144.077 160.561C145.779 160.236 147.193 160.456 148.319 161.221C149.437 161.948 150.134 163.03 150.409 164.467C150.734 166.168 150.364 168.336 149.299 170.969C148.265 173.558 146.871 176.215 145.119 178.941C143.397 181.621 141.655 183.992 139.893 186.053L139.982 186.213C140.612 185.818 141.363 185.439 142.234 185.077C143.136 184.669 144.003 184.386 144.835 184.227C145.781 184.047 146.937 183.943 148.304 183.917C149.671 183.891 150.531 183.884 150.886 183.894L152.956 169.8L156.586 169.107L156.321 182.798C157.55 182.053 158.572 180.937 159.385 179.449L159.577 179.53C160.384 180.473 160.885 181.455 161.08 182.476Z" fill="white"/>
</g>
<defs>
<clipPath id="clip0">
<rect width="262.1" height="303.305" fill="white"/>
</clipPath>
</defs>
</svg>
