<svg width="114" height="132" viewBox="0 0 114 132" fill="none" xmlns="http://www.w3.org/2000/svg">
<g clip-path="url(#clip0)">
<path d="M112.484 128.023C112.484 128.023 100.172 133.811 91.9281 130.015C83.6847 126.218 58.2184 124.519 42.3628 128.023C18.8823 133.211 11.9061 124.739 14.3709 119.157L33.3412 116.703C33.3412 116.703 57.8363 117.588 76.1818 117.809C94.5273 118.031 111.632 124.96 112.484 128.023Z" fill="#FC8181"/>
<path d="M99.6149 109.822C99.6149 116.678 77.3151 122.235 49.8076 122.235C22.2994 122.235 0 116.678 0 109.822C0 102.966 22.2994 97.4084 49.8076 97.4084C77.3151 97.4084 99.6149 102.966 99.6149 109.822Z" fill="#FC8181"/>
<path d="M31.0694 109.381C31.0694 109.381 13.1543 113.18 17.091 122.993C19.9044 130.007 53.0574 122.235 69.603 122.627C81.4422 122.908 90.6536 125.355 94.0067 126.92C113.705 136.115 122.573 122.368 100.668 117.395C89.7893 114.926 81.0711 114.686 68.8703 115.279C49.7681 116.207 29.6954 120.083 28.6667 118.432C26.9814 115.727 41.7526 111.534 41.7526 111.534C41.7526 111.534 39.9245 106.033 31.0694 109.381Z" fill="#3C2A34"/>
<path d="M28.7684 39.7667C28.7684 39.7667 25.3532 49.1908 16.3115 63.4543C9.29334 74.5245 -2.12396 109.528 48.5032 112.109C99.1303 114.69 87.7797 84.5419 83.152 68.2323C78.5249 51.9223 85.245 18.3855 65.5303 15.3633C45.8164 12.3414 46.8695 14.9671 39.7317 19.6717C37.6715 21.0296 28.7684 39.7667 28.7684 39.7667Z" fill="#FFFAEF"/>
<path d="M85.0115 74.7037C85.0115 74.7037 67.4202 73.8168 65.6176 57.9129C65.6176 57.9129 71.6737 72.351 83.8763 70.5423C83.8763 70.5423 84.5889 73.1356 85.0115 74.7037Z" fill="#F4EFD7"/>
<path d="M39.037 72.1671C39.037 72.1671 32.9425 80.8147 25.6812 76.2374C18.42 71.6598 14.3708 66.9587 14.3708 66.9587L17.0392 61.7665C17.0392 61.7665 23.4224 75.9104 39.037 72.1671Z" fill="#F4EFD7"/>
<path d="M13.5822 68.6662C13.5822 68.6662 1.10871 99.6806 34.7824 101.527C68.4561 103.374 87.5149 100.434 86.9403 83.0814C86.9403 83.0814 93.515 105.46 73.6691 110.163C55.7 114.422 29.2988 113.936 20.1802 104.955C11.0613 95.9729 5.33464 81.0579 13.5822 68.6662Z" fill="#F4EFD7"/>
<path d="M67.8015 17.7418L93.0675 17.5241C93.0675 17.5241 91.1805 25.1522 68.1966 28.8232L67.8015 17.7418Z" fill="#3C2A34"/>
<path d="M74.1147 19.8882L88.1242 20.4682C88.1242 20.4682 83.2699 24.3294 76.637 25.2036L74.1147 19.8882Z" fill="#F58981"/>
<path d="M49.0909 18.8646L38.1869 -0.999956C38.1869 -0.999956 35.4969 14.004 37.1317 23.886L49.0909 18.8646Z" fill="#3C2A34"/>
<path d="M44.4326 15.6148L39.6133 5.43609C39.6133 5.43609 38.4202 13.1355 37.9157 20.5336C37.9157 20.5336 43.7298 18.1283 44.4326 15.6148Z" fill="#F58981"/>
<path d="M56.4927 14.2399C56.4927 14.2399 62.8903 38.0936 49.2861 42.7838C35.6816 47.4744 28.7686 39.7665 28.7686 39.7665C28.7686 39.7665 32.0011 32.3698 34.5023 26.2371C39.0227 15.1539 50.1804 13.2574 56.4927 14.2399Z" fill="#3C2A34"/>
<path d="M62.2721 14.8894C62.2721 14.8894 55.9514 38.8215 63.8395 43.6482C71.728 48.4742 80.5168 42.3158 80.5168 42.3158C80.5168 42.3158 82.6952 15.0182 62.2721 14.8894Z" fill="#3C2A34"/>
<path d="M58.464 44.3982L58.6777 48.2354L59.4464 48.4305L58.7434 44.4691L58.464 44.3982Z" fill="#3C2A34"/>
<path d="M55.1983 53.0041C55.1983 53.0041 58.6905 43.2219 66.3391 46.4636C66.3391 46.4636 60.5422 45.5714 55.1983 53.0041Z" fill="#3C2A34"/>
<path d="M39.0889 30.9548L52.4094 31.0387C52.4094 31.0387 54.8207 39.1713 46.3847 39.8384C37.9473 40.5059 39.0889 30.9548 39.0889 30.9548Z" fill="#F58981"/>
<path d="M40.5855 29.6327L50.9846 29.6984C50.9846 29.6984 52.8674 36.0473 46.2807 36.5684C39.6943 37.0898 40.5855 29.6327 40.5855 29.6327Z" fill="#3C2A34"/>
<path d="M51.6938 32.2241C51.6914 32.6422 51.3502 32.9791 50.9325 32.9762C50.5145 32.9738 50.1779 32.6326 50.1804 32.2146C50.1832 31.7969 50.524 31.46 50.9421 31.4628C51.3597 31.4656 51.6966 31.8061 51.6938 32.2241Z" fill="#FFFAEF"/>
<path d="M62.9446 31.1052L76.2651 31.1891C76.2651 31.1891 78.6771 39.3217 70.2404 39.9885C61.803 40.6563 62.9446 31.1052 62.9446 31.1052Z" fill="#F58981"/>
<path d="M64.4412 29.783L74.84 29.8486C74.84 29.8486 76.7224 36.1975 70.1364 36.7186C63.5493 37.24 64.4412 29.783 64.4412 29.783Z" fill="#3C2A34"/>
<path d="M75.5495 32.3745C75.5467 32.7926 75.2059 33.1291 74.7879 33.1266C74.3702 33.1242 74.0333 32.783 74.0361 32.365C74.0389 31.9469 74.3801 31.6104 74.7974 31.6132C75.2158 31.6157 75.552 31.9565 75.5495 32.3745Z" fill="#FFFAEF"/>
<path d="M53.0574 38.2108C53.0574 38.2108 49.107 44.7556 38.7046 41.2691C38.7046 41.2691 46.2886 43.9555 53.0574 38.2108Z" fill="#6E7C7D"/>
<path d="M53.8975 25.5656L53.8735 29.4645L38.2909 29.3665L53.1171 28.7283L53.8975 25.5656Z" fill="#6E7C7D"/>
<path d="M62.6332 26.3814L62.9052 30.2578L76.9972 30.1092L63.8076 29.5271L62.6332 26.3814Z" fill="#6E7C7D"/>
<path d="M63.481 38.2765C63.481 38.2765 69.1742 48.2481 76.1818 38.9538C76.1818 38.9538 70.2674 47.006 63.481 38.2765Z" fill="#6E7C7D"/>
<path d="M73.4556 19.0599C73.4556 19.0599 79.6857 18.904 81.3762 22.7655C81.3762 22.7655 77.0028 19.6346 73.3219 19.6699C73.3219 19.6699 78.8133 20.4467 79.8956 24.1473C79.8956 24.1473 76.1364 19.7122 72.7264 20.2548L73.4556 19.0599Z" fill="#3C2A34"/>
<path d="M46.1372 16.278C46.1372 16.278 43.2928 10.7337 39.0929 11.0967C39.0929 11.0967 43.9352 13.4385 45.6659 16.6876C45.6659 16.6876 42.3561 12.238 38.5885 13.0585C38.5885 13.0585 44.2816 14.2368 45.4369 17.4905L46.1372 16.278Z" fill="#3C2A34"/>
<path d="M55.505 43.9989L30.8401 36.1133C30.8401 36.1133 43.9741 41.473 55.505 43.9989Z" fill="#DBECCC"/>
<path d="M55.505 43.9989L28.5654 42.7339C28.5654 42.7339 43.1718 44.6417 55.505 43.9989Z" fill="#DBECCC"/>
<path d="M53.8734 44.4537L29.1027 49.2144C29.1027 49.2144 42.7143 47.7543 53.8734 44.4537Z" fill="#DBECCC"/>
<path d="M61.3495 42.3315L85.2778 32.4358C85.2778 32.4358 72.6317 38.862 61.3495 42.3315Z" fill="#DBECCC"/>
<path d="M61.3495 42.3315L88.0915 38.8454C88.0915 38.8454 73.6936 41.9534 61.3495 42.3315Z" fill="#DBECCC"/>
<path d="M63.0118 42.6502L88.0918 45.3483C88.0918 45.3483 74.4062 45.0174 63.0118 42.6502Z" fill="#DBECCC"/>
<path d="M77.0337 46.0688C77.0337 46.0688 68.869 46.7881 63.16 57.8974C63.16 57.8974 66.2037 44.9406 77.0337 46.0688Z" fill="#DBECCC"/>
<path d="M76.8662 80.4698C76.8662 80.4698 51.5156 50.7853 25.8994 82.6242C25.8994 82.6242 46.2783 54.4207 76.8662 80.4698Z" fill="#DBECCC"/>
<path d="M10.4758 90.4653C10.4758 90.4653 25.2466 104.355 22.6826 109.283C17.9417 118.395 6.46969 111.507 2.5094 103.402C-2.47535 93.199 -0.14101 80.8003 10.4758 90.4653Z" fill="#3C2A34"/>
<path d="M84.2332 71.9631C84.2332 71.9631 68.4175 69.6877 65.7932 59.0024C64.3701 53.2063 72.0543 46.4569 76.8937 46.5272C81.7331 46.5977 76.9353 52.5036 76.9081 56.7771C76.9043 57.404 81.6191 58.8994 81.6191 58.8994C81.6191 58.8994 83.6116 67.2694 84.2332 71.9631Z" fill="#3C2A34"/>
<path d="M15.7353 103.168C15.7353 103.168 11.5517 95.4543 8.62753 98.6917C5.70194 101.928 10.1621 108.314 14.3228 108.567C18.4845 108.818 15.7353 103.168 15.7353 103.168Z" fill="#FC8181"/>
<path d="M10.6329 93.2201C10.6329 93.2201 12.1322 95.6313 10.5493 95.9925C8.52191 96.455 8.52967 90.6575 10.6329 93.2201Z" fill="#FC8181"/>
<path d="M6.96836 94.5998C6.96836 94.5998 9.08644 96.4907 7.66969 97.2838C5.85535 98.2987 4.22763 92.7343 6.96836 94.5998Z" fill="#FC8181"/>
<path d="M4.33253 97.6205C4.33253 97.6205 7.04822 98.4495 6.09431 99.7629C4.87264 101.445 1.06228 97.0747 4.33253 97.6205Z" fill="#FC8181"/>
<path d="M89.1391 90.4653C89.1391 90.4653 74.3686 104.355 76.9323 109.283C81.6736 118.395 93.1452 111.507 97.1055 103.402C102.091 93.199 99.7563 80.8003 89.1391 90.4653Z" fill="#3C2A34"/>
<path d="M83.8798 103.168C83.8798 103.168 88.0634 95.4543 90.9876 98.6917C93.9132 101.928 89.4533 108.314 85.2923 108.567C81.1306 108.818 83.8798 103.168 83.8798 103.168Z" fill="#FC8181"/>
<path d="M88.982 93.2201C88.982 93.2201 87.483 95.6313 89.0656 95.9925C91.093 96.455 91.0856 90.6575 88.982 93.2201Z" fill="#FC8181"/>
<path d="M92.6469 94.5998C92.6469 94.5998 90.5285 96.4907 91.9456 97.2838C93.7596 98.2987 95.3873 92.7343 92.6469 94.5998Z" fill="#FC8181"/>
<path d="M95.2824 97.6205C95.2824 97.6205 92.567 98.4495 93.5209 99.7629C94.7426 101.445 98.553 97.0747 95.2824 97.6205Z" fill="#FC8181"/>
<path d="M56.1443 41.4397C56.1443 41.4397 59.8362 39.4772 60.8218 41.2873C60.8218 41.2873 59.1669 45.3573 58.7344 45.3305C58.3009 45.3037 56.1443 41.4397 56.1443 41.4397Z" fill="#F58981"/>
<path d="M51.3029 20.6181C51.3029 20.6181 47.3003 22.4141 41.6668 21.8208C41.6668 21.8208 47.2347 23.6312 51.3029 20.6181Z" fill="#6E7C7D"/>
<path d="M73.6909 22.2221C73.6909 22.2221 69.3048 22.1237 64.4725 19.1678C64.4725 19.1678 68.7227 23.1947 73.6909 22.2221Z" fill="#6E7C7D"/>
<path d="M75.4141 47.609L71.9153 53.1092C71.9153 53.1092 75.6258 51.2575 75.4141 47.609Z" fill="#6E7C7D"/>
<path d="M77.8481 48.5464L74.3489 54.0459C74.3489 54.0459 78.0594 52.1949 77.8481 48.5464Z" fill="#6E7C7D"/>
<path d="M24.4655 68.8422L71.7095 60.0425L77.0336 90.5151L29.4957 99.4436L24.4655 68.8422Z" fill="#FC8181"/>
<g opacity="0.199997">
<g opacity="0.199997">
<path opacity="0.199997" d="M25.6709 76.1751C25.6709 76.1751 31.8742 81.6043 38.8133 72.3884C38.8133 72.3884 31.2021 77.4758 25.1883 73.24L25.6709 76.1751Z" fill="#BC8611"/>
</g>
</g>
<path d="M23.5737 50.9463C23.5737 50.9463 26.8447 59.267 29.1028 62.6861C31.3613 66.1048 41.3114 69.4097 39.0371 72.167C39.0371 72.167 32.655 79.1382 23.0947 71.8301C18.6028 68.3965 16.3115 63.4544 16.3115 63.4544C16.3115 63.4544 18.1445 57.913 23.5737 50.9463Z" fill="#3C2A34"/>
<path d="M30.3866 71.0574L36.2956 73.8094C36.2956 73.8094 33.9761 70.3727 30.3866 71.0574Z" fill="#6E7C7D"/>
<path d="M32.0375 69.2126L37.9462 71.9632C37.9462 71.9632 35.627 68.5261 32.0375 69.2126Z" fill="#6E7C7D"/>
<path d="M77.0337 90.515L29.7971 101.001L24.4656 75.45L25.5204 75.2584L30.3866 99.2762L77.0337 90.515Z" fill="#EB5757"/>
<path d="M34.0007 90.1908L36.194 88.8487C36.5818 89.4032 37.0702 89.8232 37.6592 90.1089C38.2481 90.3945 38.847 90.4738 39.4559 90.3469C40.3691 90.1565 41.0232 89.7025 41.4181 88.9849C41.8246 88.2498 41.9205 87.3676 41.7059 86.3384C41.4974 85.3382 41.044 84.5781 40.3457 84.0581C39.6474 83.5381 38.8634 83.3688 37.9936 83.5501C36.9209 83.7737 36.0947 84.4905 35.515 85.7004L33.5652 85.3808L32.5384 75.884L41.236 74.0709L41.7301 76.441L35.6635 77.7056L36.08 82.3154C36.6845 81.66 37.4941 81.2265 38.5088 81.015C39.9729 80.7098 41.2689 80.9766 42.3967 81.8154C43.5215 82.6398 44.2652 83.9217 44.6278 85.6612C44.7819 86.4005 44.8125 87.1278 44.7196 87.8429C44.6411 88.5551 44.4361 89.2407 44.1046 89.8997C43.7876 90.5557 43.2797 91.1305 42.5809 91.624C41.8821 92.1176 41.0398 92.4671 40.0541 92.6726C38.735 92.9476 37.5653 92.8511 36.545 92.3831C35.5218 91.9006 34.6737 91.1699 34.0007 90.1908Z" fill="white"/>
<path d="M48.8802 81.4622C49.8018 85.8835 51.1686 87.9053 52.9806 87.5276C53.488 87.4218 53.8779 87.1515 54.1502 86.7165C54.434 86.2641 54.6037 85.6993 54.6592 85.0222C54.7262 84.3276 54.7261 83.6015 54.6589 82.8441C54.5888 82.0722 54.46 81.2369 54.2727 80.3381C54.0823 79.4249 53.865 78.6004 53.6209 77.8647C53.3738 77.1146 53.0823 76.4417 52.7464 75.8462C52.4105 75.2507 52.0236 74.8095 51.5856 74.5227C51.1477 74.2358 50.6823 74.1438 50.1894 74.2465C48.3919 74.6212 47.9555 77.0264 48.8802 81.4622ZM45.923 82.0787C45.5694 80.3826 45.4309 78.8838 45.5075 77.5821C45.5985 76.2774 45.8675 75.2458 46.3144 74.4871C46.7612 73.7284 47.2604 73.1478 47.8118 72.7455C48.3747 72.3256 49.004 72.0432 49.6999 71.8981C51.5119 71.5204 53.0682 72.0204 54.3688 73.398C55.6839 74.7725 56.6376 76.8804 57.2299 79.7217C57.804 82.4759 57.7747 84.766 57.1419 86.592C56.5236 88.415 55.3012 89.5169 53.4747 89.8977C52.8079 90.0367 52.1341 90.0334 51.4534 89.8879C50.7871 89.7394 50.0919 89.4155 49.3676 88.916C48.6548 88.3991 47.9888 87.5623 47.3695 86.4057C46.7617 85.2315 46.2795 83.7892 45.923 82.0787Z" fill="white"/>
<path d="M61.9266 78.7426C62.8482 83.1639 64.215 85.1856 66.0271 84.8079C66.5344 84.7022 66.9243 84.4318 67.1966 83.9969C67.4805 83.5444 67.6501 82.9797 67.7056 82.3026C67.7726 81.6079 67.7725 80.8819 67.7053 80.1245C67.6352 79.3526 67.5064 78.5172 67.3191 77.6185C67.1287 76.7052 66.9115 75.8808 66.6674 75.1451C66.4202 74.3949 66.1287 73.7221 65.7928 73.1266C65.4569 72.5311 65.07 72.0899 64.632 71.803C64.1941 71.5162 63.7287 71.4241 63.2358 71.5269C61.4383 71.9016 61.0019 74.3068 61.9266 78.7426ZM58.9694 79.359C58.6158 77.663 58.4773 76.1642 58.5539 74.8625C58.6449 73.5578 58.9139 72.5261 59.3608 71.7674C59.8077 71.0087 60.3068 70.4282 60.8582 70.0259C61.4211 69.606 62.0505 69.3235 62.7463 69.1785C64.5583 68.8008 66.1146 69.3007 67.4152 70.6783C68.7303 72.0529 69.684 74.1608 70.2763 77.002C70.8504 79.7563 70.8211 82.0464 70.1883 83.8724C69.57 85.6954 68.3476 86.7973 66.5211 87.178C65.8543 87.317 65.1805 87.3138 64.4998 87.1683C63.8335 87.0198 63.1383 86.6958 62.414 86.1964C61.7012 85.6794 61.0352 84.8426 60.4159 83.686C59.8081 82.5119 59.326 81.0696 58.9694 79.359Z" fill="white"/>
</g>
<defs>
<clipPath id="clip0">
<rect width="114" height="132" fill="white"/>
</clipPath>
</defs>
</svg>
