<svg width="15" height="16" viewBox="0 0 15 16" fill="none" xmlns="http://www.w3.org/2000/svg">
<path d="M14.4643 4.78571H0.535714C0.393634 4.78571 0.257373 4.84216 0.156907 4.94262C0.0564412 5.04309 0 5.17935 0 5.32143V6.39286C0 6.53494 0.0564412 6.6712 0.156907 6.77166C0.257373 6.87213 0.393634 6.92857 0.535714 6.92857H14.4643C14.6064 6.92857 14.7426 6.87213 14.8431 6.77166C14.9436 6.6712 15 6.53494 15 6.39286V5.32143C15 5.17935 14.9436 5.04309 14.8431 4.94262C14.7426 4.84216 14.6064 4.78571 14.4643 4.78571ZM14.4643 13.3571H0.535714C0.393634 13.3571 0.257373 13.4136 0.156907 13.514C0.0564412 13.6145 0 13.7508 0 13.8929V14.9643C0 15.1064 0.0564412 15.2426 0.156907 15.3431C0.257373 15.4436 0.393634 15.5 0.535714 15.5H14.4643C14.6064 15.5 14.7426 15.4436 14.8431 15.3431C14.9436 15.2426 15 15.1064 15 14.9643V13.8929C15 13.7508 14.9436 13.6145 14.8431 13.514C14.7426 13.4136 14.6064 13.3571 14.4643 13.3571ZM3.61942 2.64286H11.3809C11.4341 2.64286 11.4868 2.63238 11.5359 2.61201C11.585 2.59165 11.6297 2.5618 11.6673 2.52418C11.7049 2.48655 11.7347 2.44189 11.755 2.39274C11.7753 2.34359 11.7858 2.29091 11.7857 2.23772V0.904799C11.7857 0.85164 11.7752 0.799002 11.7549 0.749889C11.7346 0.700777 11.7047 0.656152 11.6672 0.618563C11.6296 0.580974 11.5849 0.551157 11.5358 0.530814C11.4867 0.510471 11.4341 0.5 11.3809 0.5H3.61942C3.56623 0.499956 3.51356 0.510394 3.46441 0.530717C3.41526 0.551041 3.37059 0.580851 3.33297 0.618445C3.29534 0.656038 3.2655 0.700678 3.24513 0.749812C3.22477 0.798946 3.21429 0.851612 3.21429 0.904799V2.23772C3.21429 2.34517 3.25697 2.44822 3.33295 2.5242C3.40892 2.60017 3.51197 2.64286 3.61942 2.64286ZM11.3809 11.2143C11.4341 11.2143 11.4868 11.2038 11.5359 11.1834C11.585 11.1631 11.6297 11.1332 11.6673 11.0956C11.7049 11.058 11.7347 11.0133 11.755 10.9642C11.7753 10.915 11.7858 10.8623 11.7857 10.8092V9.47623C11.7857 9.36887 11.7431 9.26591 11.6672 9.18999C11.5912 9.11408 11.4883 9.07143 11.3809 9.07143H3.61942C3.56623 9.07138 3.51356 9.08182 3.46441 9.10215C3.41526 9.12247 3.37059 9.15228 3.33297 9.18987C3.29534 9.22747 3.2655 9.27211 3.24513 9.32124C3.22477 9.37037 3.21429 9.42304 3.21429 9.47623V10.8092C3.21429 10.8624 3.22476 10.915 3.24512 10.9642C3.26548 11.0133 3.29533 11.058 3.33295 11.0956C3.37057 11.1332 3.41523 11.1631 3.46438 11.1834C3.51353 11.2038 3.56622 11.2143 3.61942 11.2143H11.3809Z" />
</svg>
