<svg width="15" height="16" viewBox="0 0 15 16" fill="none" xmlns="http://www.w3.org/2000/svg">
<path d="M0.535714 6.92857H14.4643C14.6064 6.92857 14.7426 6.87213 14.8431 6.77166C14.9436 6.6712 15 6.53494 15 6.39286V5.32143C15 5.17935 14.9436 5.04309 14.8431 4.94262C14.7426 4.84216 14.6064 4.78571 14.4643 4.78571H0.535714C0.393634 4.78571 0.257373 4.84216 0.156907 4.94262C0.0564412 5.04309 0 5.17935 0 5.32143V6.39286C0 6.53494 0.0564412 6.6712 0.156907 6.77166C0.257373 6.87213 0.393634 6.92857 0.535714 6.92857ZM14.4643 13.3571H0.535714C0.393634 13.3571 0.257373 13.4136 0.156907 13.514C0.0564412 13.6145 0 13.7508 0 13.8929V14.9643C0 15.1064 0.0564412 15.2426 0.156907 15.3431C0.257373 15.4436 0.393634 15.5 0.535714 15.5H14.4643C14.6064 15.5 14.7426 15.4436 14.8431 15.3431C14.9436 15.2426 15 15.1064 15 14.9643V13.8929C15 13.7508 14.9436 13.6145 14.8431 13.514C14.7426 13.4136 14.6064 13.3571 14.4643 13.3571ZM14.5704 0.5H5.78672C5.73029 0.499956 5.67441 0.511037 5.62227 0.53261C5.57014 0.554183 5.52276 0.585823 5.48286 0.625722C5.44297 0.66562 5.41133 0.712994 5.38975 0.765132C5.36818 0.817271 5.3571 0.873151 5.35714 0.929576V2.21328C5.3571 2.26971 5.36818 2.32559 5.38975 2.37772C5.41133 2.42986 5.44297 2.47724 5.48286 2.51714C5.52276 2.55703 5.57014 2.58867 5.62227 2.61025C5.67441 2.63182 5.73029 2.6429 5.78672 2.64286H14.5704C14.6268 2.6429 14.6827 2.63182 14.7349 2.61025C14.787 2.58867 14.8344 2.55703 14.8743 2.51714C14.9142 2.47724 14.9458 2.42986 14.9674 2.37772C14.989 2.32559 15 2.26971 15 2.21328V0.929576C15 0.873151 14.989 0.817271 14.9674 0.765132C14.9458 0.712994 14.9142 0.66562 14.8743 0.625722C14.8344 0.585823 14.787 0.554183 14.7349 0.53261C14.6827 0.511037 14.6268 0.499956 14.5704 0.5ZM14.5704 9.07143H5.78672C5.73029 9.07138 5.67441 9.08247 5.62227 9.10404C5.57014 9.12561 5.52276 9.15725 5.48286 9.19715C5.44297 9.23705 5.41133 9.28442 5.38975 9.33656C5.36818 9.3887 5.3571 9.44458 5.35714 9.501V10.7847C5.3571 10.8411 5.36818 10.897 5.38975 10.9492C5.41133 11.0013 5.44297 11.0487 5.48286 11.0886C5.52276 11.1285 5.57014 11.1601 5.62227 11.1817C5.67441 11.2032 5.73029 11.2143 5.78672 11.2143H14.5704C14.6268 11.2143 14.6827 11.2032 14.7349 11.1817C14.787 11.1601 14.8344 11.1285 14.8743 11.0886C14.9142 11.0487 14.9458 11.0013 14.9674 10.9492C14.989 10.897 15 10.8411 15 10.7847V9.501C15 9.44458 14.989 9.3887 14.9674 9.33656C14.9458 9.28442 14.9142 9.23705 14.8743 9.19715C14.8344 9.15725 14.787 9.12561 14.7349 9.10404C14.6827 9.08247 14.6268 9.07138 14.5704 9.07143Z" />
</svg>
