<svg width="15" height="16" viewBox="0 0 15 16" fill="none" xmlns="http://www.w3.org/2000/svg">
<path d="M0.429576 11.2143H9.21328C9.26971 11.2143 9.32559 11.2032 9.37772 11.1817C9.42986 11.1601 9.47724 11.1285 9.51714 11.0886C9.55703 11.0487 9.58867 11.0013 9.61025 10.9492C9.63182 10.897 9.6429 10.8411 9.64286 10.7847V9.501C9.6429 9.44458 9.63182 9.3887 9.61025 9.33656C9.58867 9.28442 9.55703 9.23705 9.51714 9.19715C9.47724 9.15725 9.42986 9.12561 9.37772 9.10404C9.32559 9.08247 9.26971 9.07138 9.21328 9.07143H0.429576C0.373151 9.07138 0.317271 9.08247 0.265132 9.10404C0.212994 9.12561 0.16562 9.15725 0.125722 9.19715C0.0858232 9.23705 0.0541826 9.28442 0.03261 9.33656C0.0110374 9.3887 -4.38998e-05 9.44458 1.307e-07 9.501V10.7847C-4.38998e-05 10.8411 0.0110374 10.897 0.03261 10.9492C0.0541826 11.0013 0.0858232 11.0487 0.125722 11.0886C0.16562 11.1285 0.212994 11.1601 0.265132 11.1817C0.317271 11.2032 0.373151 11.2143 0.429576 11.2143ZM0.429576 2.64286H9.21328C9.26971 2.6429 9.32559 2.63182 9.37772 2.61025C9.42986 2.58867 9.47724 2.55703 9.51714 2.51714C9.55703 2.47724 9.58867 2.42986 9.61025 2.37772C9.63182 2.32559 9.6429 2.26971 9.64286 2.21328V0.929576C9.6429 0.873151 9.63182 0.817271 9.61025 0.765132C9.58867 0.712994 9.55703 0.66562 9.51714 0.625722C9.47724 0.585823 9.42986 0.554183 9.37772 0.53261C9.32559 0.511037 9.26971 0.499956 9.21328 0.5H0.429576C0.373151 0.499956 0.317271 0.511037 0.265132 0.53261C0.212994 0.554183 0.16562 0.585823 0.125722 0.625722C0.0858232 0.66562 0.0541826 0.712994 0.03261 0.765132C0.0110374 0.817271 -4.38998e-05 0.873151 1.307e-07 0.929576V2.21328C-4.38998e-05 2.26971 0.0110374 2.32559 0.03261 2.37772C0.0541826 2.42986 0.0858232 2.47724 0.125722 2.51714C0.16562 2.55703 0.212994 2.58867 0.265132 2.61025C0.317271 2.63182 0.373151 2.6429 0.429576 2.64286ZM14.4643 4.78571H0.535714C0.393634 4.78571 0.257373 4.84216 0.156907 4.94262C0.0564413 5.04309 1.307e-07 5.17935 1.307e-07 5.32143V6.39286C1.307e-07 6.53494 0.0564413 6.6712 0.156907 6.77166C0.257373 6.87213 0.393634 6.92857 0.535714 6.92857H14.4643C14.6064 6.92857 14.7426 6.87213 14.8431 6.77166C14.9436 6.6712 15 6.53494 15 6.39286V5.32143C15 5.17935 14.9436 5.04309 14.8431 4.94262C14.7426 4.84216 14.6064 4.78571 14.4643 4.78571ZM14.4643 13.3571H0.535714C0.393634 13.3571 0.257373 13.4136 0.156907 13.514C0.0564413 13.6145 1.307e-07 13.7508 1.307e-07 13.8929V14.9643C1.307e-07 15.1064 0.0564413 15.2426 0.156907 15.3431C0.257373 15.4436 0.393634 15.5 0.535714 15.5H14.4643C14.6064 15.5 14.7426 15.4436 14.8431 15.3431C14.9436 15.2426 15 15.1064 15 14.9643V13.8929C15 13.7508 14.9436 13.6145 14.8431 13.514C14.7426 13.4136 14.6064 13.3571 14.4643 13.3571Z" />
</svg>
