<svg width="15" height="16" viewBox="0 0 15 16" fill="none" xmlns="http://www.w3.org/2000/svg">
<path d="M7.5 0.5C3.35507 0.5 0 3.85441 0 8C0 12.1449 3.35441 15.5 7.5 15.5C8.95627 15.5 10.3833 15.0724 11.595 14.2836C11.9581 14.0472 12.0373 13.5491 11.7629 13.2139L11.4551 12.8379C11.2231 12.5545 10.8146 12.485 10.5064 12.6828C9.61452 13.2547 8.56796 13.5645 7.5 13.5645C4.43171 13.5645 1.93548 11.0683 1.93548 8C1.93548 4.93171 4.43171 2.43548 7.5 2.43548C10.5284 2.43548 13.0645 4.17799 13.0645 7.27419C13.0645 8.44716 12.4266 9.68575 11.3053 9.80523C10.7807 9.7915 10.794 9.41641 10.8978 8.89725L11.6065 5.23465C11.6931 4.78679 11.35 4.37097 10.8939 4.37097H9.53359C9.43315 4.37097 9.33622 4.40794 9.2613 4.47483C9.18638 4.54173 9.13871 4.63386 9.12738 4.73366L9.12708 4.73644C8.68261 4.19508 7.90385 4.07792 7.31344 4.07792C5.05799 4.07792 3.14516 5.96 3.14516 8.65837C3.14516 10.6333 4.25761 11.8601 6.04839 11.8601C6.86444 11.8601 7.78334 11.3872 8.31626 10.7008C8.60422 11.7322 9.54448 11.7322 10.4547 11.7322C13.7483 11.7322 15 9.56647 15 7.27419C15 3.1508 11.6741 0.5 7.5 0.5ZM6.84435 9.70655C6.1715 9.70655 5.75353 9.23408 5.75353 8.47356C5.75353 7.11288 6.68434 6.27409 7.52661 6.27409C8.20077 6.27409 8.60326 6.73501 8.60326 7.50706C8.60326 8.86979 7.57881 9.70655 6.84435 9.70655Z" />
</svg>
