<svg width="11" height="14" viewBox="0 0 11 14" fill="none" xmlns="http://www.w3.org/2000/svg">
<path d="M9.45658 6.46047C9.91304 5.90289 10.1946 5.22289 10.2659 4.50584C10.4871 2.21881 8.69254 0.285767 6.45706 0.285767H0.479588C0.352394 0.285767 0.230408 0.336295 0.140468 0.426235C0.0505279 0.516175 0 0.63816 0 0.765355V2.20412C0 2.33132 0.0505279 2.4533 0.140468 2.54324C0.230408 2.63318 0.352394 2.68371 0.479588 2.68371H1.43487V11.3163H0.479588C0.352394 11.3163 0.230408 11.3668 0.140468 11.4568C0.0505279 11.5467 0 11.6687 0 11.7959V13.2347C0 13.3618 0.0505279 13.4838 0.140468 13.5738C0.230408 13.6637 0.352394 13.7142 0.479588 13.7142H6.7538C8.87598 13.7142 10.7746 12.1631 10.9802 10.0454C11.1223 8.59314 10.4889 7.28596 9.45658 6.46047ZM3.82652 2.68371H6.45706C6.83864 2.68371 7.2046 2.83529 7.47442 3.10511C7.74424 3.37493 7.89582 3.74089 7.89582 4.12247C7.89582 4.50406 7.74424 4.87001 7.47442 5.13983C7.2046 5.40966 6.83864 5.56124 6.45706 5.56124H3.82652V2.68371ZM6.45706 11.3163H3.82652V7.95918H6.45706C6.90224 7.95918 7.32919 8.13603 7.64398 8.45082C7.95877 8.76561 8.13562 9.19256 8.13562 9.63774C8.13562 10.0829 7.95877 10.5099 7.64398 10.8247C7.32919 11.1395 6.90224 11.3163 6.45706 11.3163Z" />
</svg>
