<svg width="17" height="16" viewBox="0 0 17 16" fill="none" xmlns="http://www.w3.org/2000/svg">
<path d="M15.7279 1.95406L15.6482 1.87105C14.7916 0.997863 13.6661 0.562927 12.5373 0.562927C11.4084 0.562927 10.2829 0.997863 9.42631 1.87105L8.5 2.82061L7.57369 1.87437C6.72042 1.00118 5.59158 0.562927 4.46273 0.562927C3.33389 0.562927 2.20837 1.00118 1.35178 1.87437L1.2721 1.95406C-0.344799 3.60748 -0.414522 6.24033 1.02973 8L8.0717 15.2545C8.18791 15.374 8.34395 15.4371 8.49668 15.4371C8.65273 15.4371 8.80545 15.3773 8.92166 15.2545L15.9703 8C17.4145 6.24033 17.3448 3.60748 15.7279 1.95406ZM14.775 6.9442L8.5 13.4085L2.22497 6.9442C1.3219 5.79544 1.39826 4.10549 2.39762 3.0829L2.49058 2.98993C3.01516 2.45208 3.71571 2.15658 4.46273 2.15658C5.20976 2.15658 5.91031 2.45208 6.43489 2.98993L7.29812 3.87309L7.96878 5.87512L5.45877 7.0438C5.2994 7.12348 5.26288 7.33265 5.38241 7.46214L8.26427 10.4038C8.46016 10.603 8.78885 10.4071 8.70917 10.1415L7.96878 7.73439L10.512 5.99464C10.6116 5.92492 10.6514 5.79544 10.6083 5.68255L9.82473 3.74692L10.5651 2.98993C11.0897 2.45208 11.7902 2.15658 12.5373 2.15658C13.2843 2.15658 13.9848 2.45208 14.4961 2.97665L14.5858 3.06962C15.6017 4.10549 15.6781 5.79544 14.775 6.9442Z" />
</svg>
