<svg width="20" height="16" viewBox="0 0 20 16" fill="none" xmlns="http://www.w3.org/2000/svg">
<path d="M16.0047 5.99202L15.7485 6.43893C15.6547 6.60457 15.4547 6.67333 15.2766 6.6077C14.9078 6.47019 14.5702 6.2733 14.2733 6.0264C14.1296 5.90764 14.0921 5.69825 14.1858 5.53573L14.4421 5.08882C14.2265 4.8388 14.0577 4.54815 13.9452 4.2325H13.4295C13.242 4.2325 13.0795 4.09812 13.0482 3.9106C12.9857 3.53557 12.9826 3.14179 13.0482 2.75113C13.0795 2.56361 13.242 2.4261 13.4295 2.4261H13.9452C14.0577 2.11045 14.2265 1.8198 14.4421 1.56978L14.1858 1.12287C14.0921 0.960356 14.1265 0.750964 14.2733 0.632204C14.5702 0.385309 14.9109 0.188417 15.2766 0.050906C15.4547 -0.0147245 15.6547 0.0540312 15.7485 0.21967L16.0047 0.666582C16.3329 0.607202 16.6673 0.607202 16.9954 0.666582L17.2517 0.21967C17.3455 0.0540312 17.5455 -0.0147245 17.7236 0.050906C18.0924 0.188417 18.4299 0.385309 18.7268 0.632204C18.8706 0.750964 18.9081 0.960356 18.8143 1.12287L18.5581 1.56978C18.7737 1.8198 18.9425 2.11045 19.055 2.4261H19.5707C19.7582 2.4261 19.9207 2.56049 19.9519 2.748C20.0144 3.12303 20.0176 3.51682 19.9519 3.90747C19.9207 4.09499 19.7582 4.2325 19.5707 4.2325H19.055C18.9425 4.54815 18.7737 4.8388 18.5581 5.08882L18.8143 5.53573C18.9081 5.69825 18.8737 5.90764 18.7268 6.0264C18.4299 6.2733 18.0893 6.47019 17.7236 6.6077C17.5455 6.67333 17.3455 6.60457 17.2517 6.43893L16.9954 5.99202C16.6704 6.0514 16.3329 6.0514 16.0047 5.99202ZM15.6766 4.15437C16.8798 5.07945 18.2518 3.70746 17.3267 2.50423C16.1235 1.57603 14.7515 2.95115 15.6766 4.15437ZM12.0732 8.96414L13.1264 9.48919C13.442 9.67045 13.5795 10.0549 13.4545 10.3986C13.1764 11.1549 12.6295 11.8488 12.1232 12.4551C11.8919 12.7332 11.4919 12.802 11.1762 12.6207L10.2668 12.0957C9.76673 12.5238 9.18543 12.8645 8.551 13.0864V14.1364C8.551 14.499 8.2916 14.8115 7.93532 14.874C7.16651 15.0053 6.36019 15.0115 5.56325 14.874C5.20385 14.8115 4.9382 14.5021 4.9382 14.1364V13.0864C4.30377 12.8613 3.72248 12.5238 3.22243 12.0957L2.31298 12.6176C2.00046 12.7988 1.5973 12.7301 1.36603 12.4519C0.85974 11.8456 0.32532 11.1518 0.0471723 10.3986C-0.077838 10.058 0.0596734 9.67358 0.375324 9.48919L1.41604 8.96414C1.29415 8.31096 1.29415 7.63903 1.41604 6.98273L0.375324 6.45456C0.0596734 6.2733 -0.0809632 5.88889 0.0471723 5.54824C0.32532 4.79192 0.85974 4.09812 1.36603 3.49182C1.5973 3.21367 1.99733 3.14491 2.31298 3.32618L3.22243 3.85122C3.72248 3.42306 4.30377 3.08241 4.9382 2.86051V1.8073C4.9382 1.4479 5.19447 1.13537 5.55075 1.07287C6.31957 0.941605 7.12901 0.935354 7.92595 1.06974C8.28535 1.13225 8.551 1.44165 8.551 1.8073V2.85739C9.18543 3.08241 9.76673 3.41993 10.2668 3.84809L11.1762 3.32305C11.4887 3.14179 11.8919 3.21054 12.1232 3.48869C12.6295 4.09499 13.1608 4.7888 13.4389 5.54511C13.5639 5.88576 13.442 6.27017 13.1264 6.45456L12.0732 6.9796C12.1951 7.63591 12.1951 8.30784 12.0732 8.96414ZM8.39786 9.62357C10.248 7.21712 7.50091 4.47002 5.09446 6.32017C3.24431 8.72662 5.99141 11.4737 8.39786 9.62357ZM16.0047 15.3334L15.7485 15.7803C15.6547 15.946 15.4547 16.0147 15.2766 15.9491C14.9078 15.8116 14.5702 15.6147 14.2733 15.3678C14.1296 15.249 14.0921 15.0396 14.1858 14.8771L14.4421 14.4302C14.2265 14.1802 14.0577 13.8895 13.9452 13.5739H13.4295C13.242 13.5739 13.0795 13.4395 13.0482 13.252C12.9857 12.877 12.9826 12.4832 13.0482 12.0925C13.0795 11.905 13.242 11.7675 13.4295 11.7675H13.9452C14.0577 11.4518 14.2265 11.1612 14.4421 10.9112L14.1858 10.4643C14.0921 10.3018 14.1265 10.0924 14.2733 9.9736C14.5702 9.7267 14.9109 9.52981 15.2766 9.3923C15.4547 9.32667 15.6547 9.39543 15.7485 9.56107L16.0047 10.008C16.3329 9.9486 16.6673 9.9486 16.9954 10.008L17.2517 9.56107C17.3455 9.39543 17.5455 9.32667 17.7236 9.3923C18.0924 9.52981 18.4299 9.7267 18.7268 9.9736C18.8706 10.0924 18.9081 10.3018 18.8143 10.4643L18.5581 10.9112C18.7737 11.1612 18.9425 11.4518 19.055 11.7675H19.5707C19.7582 11.7675 19.9207 11.9019 19.9519 12.0894C20.0144 12.4644 20.0176 12.8582 19.9519 13.2489C19.9207 13.4364 19.7582 13.5739 19.5707 13.5739H19.055C18.9425 13.8895 18.7737 14.1802 18.5581 14.4302L18.8143 14.8771C18.9081 15.0396 18.8737 15.249 18.7268 15.3678C18.4299 15.6147 18.0893 15.8116 17.7236 15.9491C17.5455 16.0147 17.3455 15.946 17.2517 15.7803L16.9954 15.3334C16.6704 15.3928 16.3329 15.3928 16.0047 15.3334ZM15.6766 13.4926C16.8798 14.4177 18.2518 13.0457 17.3267 11.8425C16.1235 10.9174 14.7515 12.2894 15.6766 13.4926Z"/>
</svg>
