<svg width="20" height="23" viewBox="0 0 20 23" fill="none" xmlns="http://www.w3.org/2000/svg">
<path fill-rule="evenodd" clip-rule="evenodd" d="M8.57143 0C8.3062 0.000141641 8.04624 0.0741188 7.82068 0.213646C7.59511 0.353174 7.41284 0.552742 7.29429 0.79L6.26 2.85714H1.42857C1.04969 2.85714 0.686328 3.00765 0.418419 3.27556C0.15051 3.54347 0 3.90683 0 4.28571C0 4.6646 0.15051 5.02796 0.418419 5.29587C0.686328 5.56378 1.04969 5.71429 1.42857 5.71429V20C1.42857 20.7578 1.72959 21.4845 2.26541 22.0203C2.80123 22.5561 3.52795 22.8571 4.28571 22.8571H15.7143C16.472 22.8571 17.1988 22.5561 17.7346 22.0203C18.2704 21.4845 18.5714 20.7578 18.5714 20V5.71429C18.9503 5.71429 19.3137 5.56378 19.5816 5.29587C19.8495 5.02796 20 4.6646 20 4.28571C20 3.90683 19.8495 3.54347 19.5816 3.27556C19.3137 3.00765 18.9503 2.85714 18.5714 2.85714H13.74L12.7057 0.79C12.5872 0.552742 12.4049 0.353174 12.1793 0.213646C11.9538 0.0741188 11.6938 0.000141641 11.4286 0H8.57143ZM5.71429 8.57143C5.71429 8.19255 5.8648 7.82919 6.13271 7.56128C6.40061 7.29337 6.76398 7.14286 7.14286 7.14286C7.52174 7.14286 7.8851 7.29337 8.15301 7.56128C8.42092 7.82919 8.57143 8.19255 8.57143 8.57143V17.1429C8.57143 17.5217 8.42092 17.8851 8.15301 18.153C7.8851 18.4209 7.52174 18.5714 7.14286 18.5714C6.76398 18.5714 6.40061 18.4209 6.13271 18.153C5.8648 17.8851 5.71429 17.5217 5.71429 17.1429V8.57143ZM12.8571 7.14286C12.4783 7.14286 12.1149 7.29337 11.847 7.56128C11.5791 7.82919 11.4286 8.19255 11.4286 8.57143V17.1429C11.4286 17.5217 11.5791 17.8851 11.847 18.153C12.1149 18.4209 12.4783 18.5714 12.8571 18.5714C13.236 18.5714 13.5994 18.4209 13.8673 18.153C14.1352 17.8851 14.2857 17.5217 14.2857 17.1429V8.57143C14.2857 8.19255 14.1352 7.82919 13.8673 7.56128C13.5994 7.29337 13.236 7.14286 12.8571 7.14286Z"/>
</svg>
