<svg width="16" height="16" viewBox="0 0 16 16" fill="none" xmlns="http://www.w3.org/2000/svg">
<path d="M3.33024 12.1124L7.00774 12.0999L15.0344 4.1499C15.3494 3.8349 15.5227 3.41656 15.5227 2.97156C15.5227 2.52656 15.3494 2.10823 15.0344 1.79323L13.7127 0.471563C13.0827 -0.158437 11.9836 -0.155104 11.3586 0.469063L3.33024 8.42073V12.1124ZM12.5344 1.6499L13.8586 2.96906L12.5277 4.2874L11.2061 2.96656L12.5344 1.6499ZM4.99691 9.11573L10.0219 4.13823L11.3436 5.4599L6.31941 10.4357L4.99691 10.4399V9.11573Z" />
<path d="M1.66667 15.4346H13.3333C14.2525 15.4346 15 14.6871 15 13.7679V6.54459L13.3333 8.21125V13.7679H4.29833C4.27667 13.7679 4.25417 13.7763 4.2325 13.7763C4.205 13.7763 4.1775 13.7688 4.14917 13.7679H1.66667V2.10125H7.3725L9.03917 0.434587H1.66667C0.7475 0.434587 0 1.18209 0 2.10125V13.7679C0 14.6871 0.7475 15.4346 1.66667 15.4346Z" />
</svg>
