<svg width="15" height="14" viewBox="0 0 15 14" fill="none" xmlns="http://www.w3.org/2000/svg">
<path d="M6.47764 5.33086L6.6492 8.24753C6.65891 8.41271 6.79571 8.54167 6.96115 8.54167H8.0385C8.1182 8.54167 8.19489 8.51121 8.25288 8.45653C8.31086 8.40186 8.34577 8.32709 8.35045 8.24753L8.52201 5.33086C8.53256 5.15135 8.38985 5 8.21006 5H6.78957C6.6098 5 6.46709 5.15135 6.47764 5.33086ZM8.5936 10C8.5936 10.6041 8.10391 11.0938 7.49985 11.0938C6.89579 11.0938 6.4061 10.6041 6.4061 10C6.4061 9.39594 6.89579 8.90625 7.49985 8.90625C8.10391 8.90625 8.5936 9.39594 8.5936 10ZM8.58259 0.62461C8.10256 -0.207448 6.89803 -0.208958 6.41712 0.62461L0.168523 11.4587C-0.311216 12.2903 0.289383 13.3333 1.25126 13.3333H13.7483C14.7083 13.3333 15.3117 12.2919 14.831 11.4587L8.58259 0.62461ZM1.38503 11.849L7.36451 1.48458C7.42464 1.38036 7.57506 1.38036 7.63519 1.48458L13.6147 11.849C13.6748 11.9532 13.5996 12.0833 13.4793 12.0833H1.52037C1.40014 12.0833 1.32496 11.9532 1.38503 11.849Z" />
</svg>
