<svg width="20" height="14" viewBox="0 0 20 14" fill="none" xmlns="http://www.w3.org/2000/svg">
<path d="M1.5 7C1.5 5.13969 2.11094 3.33187 3.23 1.85906C3.39188 1.64625 3.37 1.34937 3.16656 1.17594L2.78531 0.850625C2.56938 0.66625 2.23469 0.6925 2.06188 0.917812C0.72875 2.65688 0 4.79688 0 7C0 9.20219 0.72875 11.3425 2.06125 13.0819C2.23406 13.3072 2.56844 13.3334 2.78469 13.1494L3.16563 12.8244C3.36906 12.6509 3.39094 12.3544 3.22937 12.1412C2.11094 10.6678 1.5 8.86031 1.5 7ZM10 0C6.13438 0 3 3.13438 3 7C3 10.8675 6.13438 14 10 14C13.8656 14 17 10.8675 17 7C17 3.13438 13.8656 0 10 0ZM10 11C9.44781 11 9 10.5522 9 10C9 9.44781 9.44781 9 10 9C10.5522 9 11 9.44781 11 10C11 10.5522 10.5522 11 10 11ZM10.795 7.54969C10.7694 7.80531 10.5544 8 10.2975 8H9.7025C9.44563 8 9.23063 7.80531 9.205 7.54969L8.805 3.54969C8.77563 3.25531 9.00656 3 9.3025 3H10.6975C10.9934 3 11.2244 3.25531 11.195 3.54969L10.795 7.54969ZM17.8978 0.865937C17.7234 0.641562 17.3888 0.6175 17.1737 0.803437L16.7941 1.13188C16.5919 1.30687 16.5722 1.60344 16.7353 1.81531C17.8763 3.29594 18.5 5.11906 18.5 7C18.5 8.88219 17.8762 10.7053 16.7356 12.1859C16.5725 12.3978 16.5922 12.6944 16.7944 12.8694L17.1741 13.1975C17.3888 13.3834 17.7237 13.3594 17.8981 13.135C19.2566 11.3869 20 9.22844 20 7C20 4.77281 19.2566 2.61438 17.8978 0.865937Z" />
</svg>
