<svg width="16" height="16" viewBox="0 0 16 16" fill="none" xmlns="http://www.w3.org/2000/svg">
<path d="M8 0C3.58203 0 0 3.58332 0 8C0 12.4193 3.58203 16 8 16C12.418 16 16 12.4193 16 8C16 3.58332 12.418 0 8 0ZM8 14.4516C4.43445 14.4516 1.54839 11.5667 1.54839 8C1.54839 4.43564 4.43458 1.54839 8 1.54839C11.5642 1.54839 14.4516 4.43455 14.4516 8C14.4516 11.5655 11.5667 14.4516 8 14.4516ZM9.35484 11.0968C9.35484 11.8438 8.74706 12.4516 8 12.4516C7.25294 12.4516 6.64516 11.8438 6.64516 11.0968C6.64516 10.3497 7.25294 9.74194 8 9.74194C8.74706 9.74194 9.35484 10.3497 9.35484 11.0968ZM6.73 4.27739L6.94935 8.66448C6.95964 8.87052 7.12971 9.03226 7.33597 9.03226H8.66403C8.87029 9.03226 9.04035 8.87052 9.05065 8.66448L9.27 4.27739C9.28106 4.05629 9.10477 3.87097 8.88339 3.87097H7.11661C6.89523 3.87097 6.71894 4.05629 6.73 4.27739Z"/>
</svg>
