<svg width="15" height="14" viewBox="0 0 15 14" fill="none" xmlns="http://www.w3.org/2000/svg">
<path d="M14.8312 11.4587C15.3119 12.2918 14.7085 13.3333 13.7484 13.3333H1.25141C0.289513 13.3333 -0.31106 12.2902 0.168679 11.4587L6.41727 0.624609C6.89818 -0.208958 8.10269 -0.207448 8.58274 0.624609L14.8312 11.4587ZM7.5 9.21875C6.83842 9.21875 6.30209 9.75508 6.30209 10.4167C6.30209 11.0783 6.83842 11.6146 7.5 11.6146C8.16159 11.6146 8.69792 11.0783 8.69792 10.4167C8.69792 9.75508 8.16159 9.21875 7.5 9.21875ZM6.36269 4.91286L6.55586 8.45453C6.5649 8.62026 6.70193 8.75 6.8679 8.75H8.13211C8.29808 8.75 8.43511 8.62026 8.44415 8.45453L8.63732 4.91286C8.64709 4.73385 8.50456 4.58333 8.32529 4.58333H6.67469C6.49542 4.58333 6.35292 4.73385 6.36269 4.91286Z" />
</svg>
