<svg width="16" height="13" viewBox="0 0 16 13" fill="none" xmlns="http://www.w3.org/2000/svg">
<path d="M15.7786 6.95359L10.445 12.2872C9.96875 12.7634 9.14331 12.4301 9.14331 11.7475V8.69971H4.82564C4.40339 8.69971 4.06369 8.36001 4.06369 7.93777V4.89C4.06369 4.46775 4.40339 4.12805 4.82564 4.12805H9.14331V1.08028C9.14331 0.400884 9.96557 0.0643595 10.445 0.540574L15.7786 5.87417C16.0738 6.1726 16.0738 6.65516 15.7786 6.95359ZM6.09554 12.1284V10.8585C6.09554 10.649 5.9241 10.4776 5.71457 10.4776H3.04777C2.48584 10.4776 2.03185 10.0236 2.03185 9.46165V3.36611C2.03185 2.80418 2.48584 2.35019 3.04777 2.35019H5.71457C5.9241 2.35019 6.09554 2.17875 6.09554 1.96922V0.699312C6.09554 0.489777 5.9241 0.31834 5.71457 0.31834H3.04777C1.36515 0.31834 0 1.68349 0 3.36611V9.46165C0 11.1443 1.36515 12.5094 3.04777 12.5094H5.71457C5.9241 12.5094 6.09554 12.338 6.09554 12.1284Z" />
</svg>
