<svg width="15" height="16" viewBox="0 0 15 16" fill="none" xmlns="http://www.w3.org/2000/svg">
<path d="M15 0.0999756C13.483 0.204273 2.82527 1.21913 2.08025 8.52613C1.98972 9.30719 1.93845 10.0918 1.90475 10.8769L7.14514 5.64183C7.32825 5.45872 7.62561 5.45872 7.80872 5.64183C7.99183 5.82493 7.99183 6.12171 7.80872 6.30482L0.206106 13.8998C-0.0687019 14.1743 -0.0687019 14.6196 0.206106 14.8942C0.480913 15.1687 0.926523 15.1687 1.20162 14.8942L2.87537 13.2222C4.10849 13.2181 5.34073 13.1481 6.56564 13.0065C8.13245 12.8472 9.40805 12.2311 10.4499 11.3501H7.49231L11.7928 9.91804C12.1224 9.48181 12.4189 9.01832 12.6849 8.53756H10.3078L13.4291 6.97866C14.6569 3.9924 14.947 0.869319 15 0.0999756Z" />
</svg>
