<svg width="20" height="12" viewBox="0 0 20 12" fill="none" xmlns="http://www.w3.org/2000/svg">
<path fill-rule="evenodd" clip-rule="evenodd" d="M6.66667 11C6.66667 10.779 6.75446 10.567 6.91074 10.4107C7.06702 10.2545 7.27899 10.1667 7.5 10.1667H12.5C12.721 10.1667 12.933 10.2545 13.0893 10.4107C13.2455 10.567 13.3333 10.779 13.3333 11C13.3333 11.221 13.2455 11.433 13.0893 11.5892C12.933 11.7455 12.721 11.8333 12.5 11.8333H7.5C7.27899 11.8333 7.06702 11.7455 6.91074 11.5892C6.75446 11.433 6.66667 11.221 6.66667 11ZM3.33333 5.99999C3.33333 5.77898 3.42113 5.56701 3.57741 5.41073C3.73369 5.25445 3.94565 5.16666 4.16667 5.16666H15.8333C16.0543 5.16666 16.2663 5.25445 16.4226 5.41073C16.5789 5.56701 16.6667 5.77898 16.6667 5.99999C16.6667 6.221 16.5789 6.43297 16.4226 6.58925C16.2663 6.74553 16.0543 6.83332 15.8333 6.83332H4.16667C3.94565 6.83332 3.73369 6.74553 3.57741 6.58925C3.42113 6.43297 3.33333 6.221 3.33333 5.99999ZM0 0.99999C0 0.778976 0.0877975 0.567015 0.244078 0.410734C0.400358 0.254454 0.61232 0.166656 0.833333 0.166656H19.1667C19.3877 0.166656 19.5996 0.254454 19.7559 0.410734C19.9122 0.567015 20 0.778976 20 0.99999C20 1.221 19.9122 1.43297 19.7559 1.58925C19.5996 1.74553 19.3877 1.83332 19.1667 1.83332H0.833333C0.61232 1.83332 0.400358 1.74553 0.244078 1.58925C0.0877975 1.43297 0 1.221 0 0.99999Z" />
</svg>
