<svg width="17" height="15" viewBox="0 0 17 15" fill="none" xmlns="http://www.w3.org/2000/svg">
<path d="M2.55 9.53921V4.01421H1.275C0.570828 4.01421 0 4.58504 0 5.28921V12.9392C0 13.6434 0.570828 14.2142 1.275 14.2142H12.325C13.0292 14.2142 13.6 13.6434 13.6 12.9392V11.6642H4.675C3.50333 11.6642 2.55 10.7109 2.55 9.53921ZM15.725 2.31421H10.625L8.925 0.614212H4.675C3.97083 0.614212 3.4 1.18504 3.4 1.88921V9.53921C3.4 10.2434 3.97083 10.8142 4.675 10.8142H15.725C16.4292 10.8142 17 10.2434 17 9.53921V3.58921C17 2.88504 16.4292 2.31421 15.725 2.31421Z" />
</svg>
