<svg width="42" height="34" viewBox="0 0 42 34" fill="none" xmlns="http://www.w3.org/2000/svg">
<path d="M39.9 0H10.5C9.34041 0 8.4 0.861656 8.4 1.92478V7.35H11.55V3.15H14.7V7.35H17.85V3.15H32.55V23.1H39.9C41.0596 23.1 42 22.2383 42 21.1752V1.92478C42 0.861656 41.0596 0 39.9 0ZM38.85 19.95H35.7V16.275H38.85V19.95ZM38.85 13.125H35.7V9.975H38.85V13.125ZM38.85 6.825H35.7V3.15H38.85V6.825ZM8.4 21C8.81534 21 9.22135 20.8768 9.5667 20.6461C9.91204 20.4153 10.1812 20.0874 10.3401 19.7036C10.4991 19.3199 10.5407 18.8977 10.4596 18.4903C10.3786 18.0829 10.1786 17.7088 9.88492 17.4151C9.59123 17.1214 9.21705 16.9214 8.80969 16.8403C8.40233 16.7593 7.98009 16.8009 7.59636 16.9599C7.21264 17.1188 6.88466 17.388 6.65391 17.7333C6.42316 18.0786 6.3 18.4847 6.3 18.9C6.3 19.457 6.52125 19.9911 6.91508 20.3849C7.3089 20.7787 7.84304 21 8.4 21ZM27.3 10.5H2.1C1.54305 10.5 1.0089 10.7212 0.615076 11.1151C0.221249 11.5089 0 12.043 0 12.6V31.5C0 32.057 0.221249 32.5911 0.615076 32.9849C1.0089 33.3787 1.54305 33.6 2.1 33.6H27.3C27.857 33.6 28.3911 33.3787 28.7849 32.9849C29.1787 32.5911 29.4 32.057 29.4 31.5V12.6C29.4 12.043 29.1787 11.5089 28.7849 11.1151C28.3911 10.7212 27.857 10.5 27.3 10.5ZM26.25 26.25L19.6422 19.6422C19.4453 19.4455 19.1784 19.3349 18.9 19.3349C18.6216 19.3349 18.3547 19.4455 18.1578 19.6422L11.55 26.25L9.14222 23.8422C8.94532 23.6455 8.67836 23.5349 8.4 23.5349C8.12164 23.5349 7.85467 23.6455 7.65778 23.8422L3.15 28.35V13.65H26.25V26.25Z" />
</svg>
