<svg width="42" height="37" viewBox="0 0 42 37" fill="none" xmlns="http://www.w3.org/2000/svg">
<path fill-rule="evenodd" clip-rule="evenodd" d="M0 5.25C0 3.85761 0.553123 2.52226 1.53769 1.53769C2.52226 0.553123 3.85761 0 5.25 0H36.75C38.1424 0 39.4777 0.553123 40.4623 1.53769C41.4469 2.52226 42 3.85761 42 5.25V31.5C42 32.8924 41.4469 34.2277 40.4623 35.2123C39.4777 36.1969 38.1424 36.75 36.75 36.75H5.25C3.85761 36.75 2.52226 36.1969 1.53769 35.2123C0.553123 34.2277 0 32.8924 0 31.5V5.25ZM2.625 28.875L9.57075 22.6957C9.7853 22.482 10.0672 22.349 10.3686 22.3193C10.67 22.2897 10.9724 22.3652 11.2245 22.533L18.207 27.1871L27.9457 17.4484C28.1404 17.2535 28.3914 17.1249 28.6632 17.0806C28.9351 17.0363 29.2139 17.0786 29.4604 17.2016L39.375 22.3125V31.5C39.375 32.1962 39.0984 32.8639 38.6062 33.3562C38.1139 33.8484 37.4462 34.125 36.75 34.125H5.25C4.55381 34.125 3.88613 33.8484 3.39384 33.3562C2.90156 32.8639 2.625 32.1962 2.625 31.5V28.875ZM15.75 11.8125C15.75 12.8568 15.3352 13.8583 14.5967 14.5967C13.8583 15.3352 12.8568 15.75 11.8125 15.75C10.7682 15.75 9.76669 15.3352 9.02827 14.5967C8.28984 13.8583 7.875 12.8568 7.875 11.8125C7.875 10.7682 8.28984 9.76669 9.02827 9.02827C9.76669 8.28984 10.7682 7.875 11.8125 7.875C12.8568 7.875 13.8583 8.28984 14.5967 9.02827C15.3352 9.76669 15.75 10.7682 15.75 11.8125Z" />
</svg>
