<svg width="9" height="14" viewBox="0 0 9 14" fill="none" xmlns="http://www.w3.org/2000/svg">
<path d="M9 1.15001V2.05001C9 2.16936 8.95259 2.28382 8.8682 2.36821C8.78381 2.4526 8.66935 2.50001 8.55 2.50001H6.78487L4.53487 11.5H5.85C5.96935 11.5 6.08381 11.5474 6.1682 11.6318C6.25259 11.7162 6.3 11.8307 6.3 11.95V12.85C6.3 12.9694 6.25259 13.0838 6.1682 13.1682C6.08381 13.2526 5.96935 13.3 5.85 13.3H0.45C0.330653 13.3 0.216193 13.2526 0.131802 13.1682C0.0474106 13.0838 0 12.9694 0 12.85V11.95C0 11.8307 0.0474106 11.7162 0.131802 11.6318C0.216193 11.5474 0.330653 11.5 0.45 11.5H2.21513L4.46512 2.50001H3.15C3.03065 2.50001 2.91619 2.4526 2.8318 2.36821C2.74741 2.28382 2.7 2.16936 2.7 2.05001V1.15001C2.7 1.03066 2.74741 0.916205 2.8318 0.831814C2.91619 0.747423 3.03065 0.700012 3.15 0.700012H8.55C8.66935 0.700012 8.78381 0.747423 8.8682 0.831814C8.95259 0.916205 9 1.03066 9 1.15001Z" />
</svg>
