<svg width="100" height="36" viewBox="0 0 100 36" fill="none" xmlns="http://www.w3.org/2000/svg">
<path d="M5.30022 24.1966C3.62736 24.1966 2.32151 23.7272 1.38267 22.7884C0.460888 21.8325 0 20.5778 0 19.0245C0 17.6418 0.273119 16.4298 0.819357 15.3886C1.3656 14.3473 2.074 13.545 2.94456 12.9817C3.81513 12.4184 4.72837 12.1367 5.68429 12.1367C6.62314 12.1367 7.34861 12.4184 7.86071 12.9817C8.38988 13.5279 8.65446 14.2363 8.65446 15.1069C8.65446 15.8238 8.4923 16.4298 8.16797 16.9248C7.86071 17.4199 7.45103 17.6674 6.93893 17.6674C6.6146 17.6674 6.35002 17.5906 6.14518 17.4369C5.95741 17.2833 5.86353 17.0699 5.86353 16.7968C5.86353 16.6773 5.8806 16.5408 5.91474 16.3871C5.94888 16.2335 5.97448 16.1226 5.99155 16.0543C6.0769 15.7982 6.11957 15.5593 6.11957 15.3373C6.11957 15.1154 6.05983 14.9447 5.94034 14.8252C5.83792 14.7058 5.68429 14.646 5.47945 14.646C5.08684 14.646 4.71984 14.8252 4.37844 15.1837C4.03704 15.5251 3.76392 15.9945 3.55908 16.592C3.35424 17.1894 3.25182 17.8466 3.25182 18.5636C3.25182 20.5437 4.11386 21.5337 5.83792 21.5337C6.53779 21.5337 7.28887 21.3033 8.09115 20.8424C8.91051 20.3644 9.7128 19.656 10.498 18.7172C10.7029 18.4782 10.9333 18.3587 11.1893 18.3587C11.4113 18.3587 11.582 18.4611 11.7014 18.666C11.838 18.8708 11.9063 19.1525 11.9063 19.5109C11.9063 20.1596 11.7441 20.6888 11.4198 21.0984C10.6175 22.0885 9.65305 22.8567 8.52644 23.4029C7.41689 23.9321 6.34148 24.1966 5.30022 24.1966Z" fill="#4F4F4F"/>
<path d="M24.0472 18.3587C24.2691 18.3587 24.4398 18.4611 24.5593 18.666C24.6959 18.8708 24.7642 19.1525 24.7642 19.5109C24.7642 20.1937 24.602 20.7229 24.2777 21.0984C23.4924 22.0032 22.6816 22.7457 21.8452 23.3261C21.0258 23.9065 20.087 24.1966 19.0287 24.1966C18.1581 24.1966 17.5009 23.9491 17.0571 23.4541C16.6133 22.942 16.3913 22.208 16.3913 21.2521C16.3913 20.7741 16.5108 19.9206 16.7498 18.6916C16.9717 17.6162 17.0827 16.8736 17.0827 16.464C17.0827 16.1908 16.9888 16.0543 16.801 16.0543C16.5791 16.0543 16.2633 16.3445 15.8536 16.9248C15.444 17.4882 15.0343 18.2392 14.6246 19.1781C14.2149 20.1169 13.8821 21.107 13.626 22.1483C13.3017 23.5138 12.4994 24.1966 11.2192 24.1966C10.7071 24.1966 10.3657 24.0174 10.195 23.6589C10.0413 23.2834 9.96451 22.6177 9.96451 21.6618C9.96451 21.1155 9.97305 20.6802 9.99012 20.3559L10.0157 18.3075C10.0157 15.6787 10.2803 12.939 10.8095 10.0883C11.3557 7.23766 12.1495 4.84786 13.1907 2.91896C14.2491 0.972987 15.5122 0 16.9803 0C17.7655 0 18.3971 0.341399 18.875 1.0242C19.3701 1.68992 19.6176 2.56049 19.6176 3.6359C19.6176 5.35996 19.114 7.15231 18.1069 9.01293C17.0997 10.8565 15.461 13.0158 13.1907 15.491C13.1395 16.3786 13.1139 17.2919 13.1139 18.2307C13.6772 16.7798 14.3003 15.6019 14.9831 14.6972C15.6829 13.7754 16.3657 13.1183 17.0315 12.7256C17.7143 12.333 18.3373 12.1367 18.9006 12.1367C20.0102 12.1367 20.5649 12.6915 20.5649 13.801C20.5649 14.4668 20.3772 15.6702 20.0016 17.4113C19.6773 18.8964 19.5151 19.878 19.5151 20.3559C19.5151 21.0387 19.7627 21.3801 20.2577 21.3801C20.5991 21.3801 21.0002 21.1753 21.4611 20.7656C21.9391 20.3388 22.5707 19.656 23.3559 18.7172C23.5607 18.4782 23.7912 18.3587 24.0472 18.3587ZM16.4426 2.53489C16.1353 2.53489 15.7939 2.97871 15.4184 3.86634C15.0428 4.73691 14.6758 5.92327 14.3173 7.42543C13.9759 8.91051 13.6943 10.5322 13.4724 12.2904C14.5307 11.0443 15.4013 9.68719 16.0841 8.21918C16.784 6.75116 17.1339 5.41971 17.1339 4.22481C17.1339 3.67857 17.0741 3.26036 16.9547 2.97017C16.8352 2.67998 16.6645 2.53489 16.4426 2.53489Z" fill="#4F4F4F"/>
<path d="M26.0432 10.4468C25.3263 10.4468 24.7886 10.2846 24.4301 9.96031C24.0716 9.61891 23.8924 9.14949 23.8924 8.55204C23.8924 7.95459 24.1228 7.45957 24.5837 7.06696C25.0617 6.65728 25.6506 6.45244 26.3505 6.45244C26.982 6.45244 27.4941 6.60607 27.8868 6.91333C28.2794 7.22059 28.4757 7.65587 28.4757 8.21918C28.4757 8.90198 28.2538 9.44821 27.8099 9.85789C27.3661 10.2505 26.7772 10.4468 26.0432 10.4468ZM25.8384 24.1966C24.7288 24.1966 23.918 23.804 23.4059 23.0188C22.9109 22.2336 22.6633 21.1923 22.6633 19.895C22.6633 19.1269 22.7572 18.1454 22.945 16.9505C23.1498 15.7385 23.4059 14.6119 23.7132 13.5706C23.8668 13.0244 24.0716 12.6488 24.3277 12.444C24.5837 12.2392 24.9934 12.1367 25.5567 12.1367C26.4273 12.1367 26.8626 12.4269 26.8626 13.0073C26.8626 13.434 26.7004 14.4241 26.3761 15.9775C25.9664 17.8552 25.7615 19.1269 25.7615 19.7926C25.7615 20.3047 25.8298 20.6973 25.9664 20.9704C26.1029 21.2435 26.3334 21.3801 26.6577 21.3801C26.965 21.3801 27.3491 21.1667 27.8099 20.74C28.2708 20.3132 28.8853 19.639 29.6535 18.7172C29.8583 18.4782 30.0888 18.3587 30.3448 18.3587C30.5667 18.3587 30.7374 18.4611 30.8569 18.666C30.9935 18.8708 31.0618 19.1525 31.0618 19.5109C31.0618 20.1937 30.8996 20.7229 30.5753 21.0984C28.8853 23.1639 27.3064 24.1966 25.8384 24.1966Z" fill="#4F4F4F"/>
<path d="M38.6944 18.3587C38.9163 18.3587 39.087 18.4611 39.2065 18.666C39.3431 18.8708 39.4114 19.1525 39.4114 19.5109C39.4114 20.1937 39.2492 20.7229 38.9249 21.0984C38.1909 22.0032 37.3886 22.7457 36.518 23.3261C35.6645 23.9065 34.6915 24.1966 33.5991 24.1966C32.0969 24.1966 30.9788 23.5138 30.2448 22.1483C29.5279 20.7827 29.1694 19.0159 29.1694 16.848C29.1694 14.7655 29.434 12.3928 29.9632 9.72987C30.5094 7.06696 31.3031 4.77958 32.3444 2.86775C33.4027 0.955917 34.6574 0 36.1083 0C36.9277 0 37.5678 0.384074 38.0287 1.15222C38.5067 1.9033 38.7456 2.98724 38.7456 4.40405C38.7456 6.43537 38.1823 8.79102 37.0557 11.471C35.9291 14.151 34.4013 16.8054 32.4724 19.4341C32.5919 20.134 32.7882 20.6376 33.0613 20.9448C33.3345 21.235 33.6929 21.3801 34.1368 21.3801C34.8366 21.3801 35.4511 21.1838 35.9803 20.7912C36.5095 20.3815 37.1837 19.6902 38.0031 18.7172C38.2079 18.4782 38.4384 18.3587 38.6944 18.3587ZM35.545 2.53489C35.1524 2.53489 34.7086 3.24329 34.2136 4.6601C33.7185 6.0769 33.2833 7.8351 32.9077 9.93471C32.5322 12.0343 32.3273 14.0486 32.2932 15.9775C33.5052 13.9803 34.4696 11.9831 35.1866 9.98592C35.9035 7.97166 36.262 6.13664 36.262 4.48086C36.262 3.18355 36.023 2.53489 35.545 2.53489Z" fill="#4F4F4F"/>
<path d="M47.046 18.3587C47.2679 18.3587 47.4386 18.4611 47.5581 18.666C47.6947 18.8708 47.763 19.1525 47.763 19.5109C47.763 20.1937 47.6008 20.7229 47.2765 21.0984C46.5425 22.0032 45.7402 22.7457 44.8696 23.3261C44.0161 23.9065 43.0431 24.1966 41.9507 24.1966C40.4485 24.1966 39.3304 23.5138 38.5964 22.1483C37.8795 20.7827 37.521 19.0159 37.521 16.848C37.521 14.7655 37.7856 12.3928 38.3148 9.72987C38.861 7.06696 39.6547 4.77958 40.696 2.86775C41.7543 0.955917 43.009 0 44.4599 0C45.2793 0 45.9194 0.384074 46.3803 1.15222C46.8583 1.9033 47.0972 2.98724 47.0972 4.40405C47.0972 6.43537 46.5339 8.79102 45.4073 11.471C44.2807 14.151 42.7529 16.8054 40.824 19.4341C40.9435 20.134 41.1398 20.6376 41.4129 20.9448C41.6861 21.235 42.0445 21.3801 42.4884 21.3801C43.1882 21.3801 43.8027 21.1838 44.3319 20.7912C44.8611 20.3815 45.5353 19.6902 46.3547 18.7172C46.5595 18.4782 46.79 18.3587 47.046 18.3587ZM43.8966 2.53489C43.504 2.53489 43.0602 3.24329 42.5652 4.6601C42.0701 6.0769 41.6349 7.8351 41.2593 9.93471C40.8838 12.0343 40.6789 14.0486 40.6448 15.9775C41.8568 13.9803 42.8212 11.9831 43.5382 9.98592C44.2551 7.97166 44.6136 6.13664 44.6136 4.48086C44.6136 3.18355 44.3746 2.53489 43.8966 2.53489Z" fill="#4F4F4F"/>
<path d="M50.4559 24.76C49.5682 24.76 48.8855 24.5551 48.4075 24.1454C47.9466 23.7358 47.7162 23.2749 47.7162 22.7628C47.7162 22.319 47.8783 21.9349 48.2027 21.6105C48.527 21.2862 49.0049 21.1241 49.6365 21.1241C49.8584 21.1241 50.1145 21.1497 50.4047 21.2009C50.7119 21.235 50.9424 21.2606 51.096 21.2777C51.0789 20.8339 50.9765 20.4157 50.7887 20.023C50.618 19.6304 50.3961 19.2549 50.123 18.8964C49.8499 18.5209 49.5939 18.1966 49.3549 17.9234C48.8257 18.9306 48.2965 19.767 47.7674 20.4327C47.2553 21.0985 46.692 21.73 46.0774 22.3275C45.7702 22.6347 45.4459 22.7884 45.1045 22.7884C44.8313 22.7884 44.6094 22.6945 44.4387 22.5067C44.268 22.3019 44.1827 22.0544 44.1827 21.7642C44.1827 21.4228 44.3022 21.107 44.5411 20.8168L44.874 20.4071C45.8129 19.2464 46.5213 18.2904 46.9992 17.5394C47.2894 17.0443 47.6308 16.3871 48.0234 15.5678C48.416 14.7314 48.8001 13.8693 49.1756 12.9817C49.5 12.2306 50.1742 11.8551 51.1984 11.8551C51.6764 11.8551 52.0092 11.8978 52.197 11.9831C52.3848 12.0685 52.4787 12.205 52.4787 12.3928C52.4787 12.4952 52.4445 12.6574 52.3762 12.8793C52.308 13.1012 52.2141 13.3231 52.0946 13.545C51.7873 14.1595 51.6337 14.6802 51.6337 15.1069C51.6337 15.3629 51.7191 15.6446 51.8898 15.9519C52.0775 16.2591 52.3592 16.6432 52.7347 17.1041C53.281 17.821 53.6906 18.4355 53.9638 18.9476C54.2539 19.4427 54.399 19.9889 54.399 20.5864C54.399 20.7571 54.382 20.996 54.3478 21.3033C55.1843 20.979 56.1658 20.1169 57.2924 18.7172C57.4972 18.4782 57.7277 18.3587 57.9837 18.3587C58.2056 18.3587 58.3763 18.4611 58.4958 18.666C58.6324 18.8708 58.7007 19.1525 58.7007 19.5109C58.7007 20.1596 58.5385 20.6888 58.2142 21.0984C57.3607 22.1568 56.5413 22.8823 55.7561 23.2749C54.988 23.6504 54.032 23.8552 52.8883 23.8894C52.2055 24.4698 51.3947 24.76 50.4559 24.76Z" fill="#4F4F4F"/>
<path d="M70.2935 18.3587C70.5154 18.3587 70.6861 18.4611 70.8056 18.666C70.9421 18.8708 71.0104 19.1525 71.0104 19.5109C71.0104 20.1937 70.8483 20.7229 70.5239 21.0984C69.7899 22.0032 68.9962 22.7457 68.1427 23.3261C67.3063 23.9065 66.3503 24.1966 65.2749 24.1966C64.3702 24.1966 63.6362 23.8723 63.0729 23.2237C62.0999 23.8552 61.0843 24.1796 60.0259 24.1966C59.804 27.4911 59.3004 30.2394 58.5152 32.4414C57.73 34.6605 56.5778 35.7701 55.0586 35.7701C54.1368 35.7701 53.454 35.4372 53.0102 34.7715C52.5664 34.1057 52.3444 33.184 52.3444 32.0061C52.3444 30.3333 52.7285 28.3788 53.4967 26.1426C54.2648 23.9235 55.4512 21.474 57.0557 18.794C57.0557 16.3018 57.0387 14.5692 57.0045 13.5962C56.9875 13.1012 57.1838 12.7086 57.5934 12.4184C58.0031 12.1282 58.5152 11.9831 59.1297 11.9831C59.4882 11.9831 59.7443 12.0599 59.8979 12.2135C60.0686 12.3501 60.1625 12.6318 60.1795 13.0585C60.1795 13.4853 60.1881 13.801 60.2052 14.0059C60.7514 13.3231 61.2891 12.8366 61.8183 12.5464C62.3474 12.2391 62.9107 12.0855 63.5082 12.0855C64.4641 12.0855 65.2408 12.4696 65.8382 13.2377C66.4528 14.0059 66.76 15.013 66.76 16.2591C66.76 17.1638 66.6149 18.0429 66.3247 18.8964C66.0345 19.7499 65.6334 20.5266 65.1213 21.2265C65.4798 21.3289 65.7785 21.3801 66.0175 21.3801C66.5808 21.3801 67.1185 21.1753 67.6306 20.7656C68.1427 20.3559 68.7999 19.6731 69.6022 18.7172C69.807 18.4782 70.0374 18.3587 70.2935 18.3587ZM60.1539 21.7386C60.7685 21.602 61.3318 21.2691 61.8439 20.74C62.373 20.1937 62.7913 19.528 63.0985 18.7428C63.4058 17.9405 63.5594 17.1041 63.5594 16.2335C63.5594 15.7214 63.457 15.3373 63.2521 15.0813C63.0473 14.8082 62.7742 14.6716 62.4328 14.6716C61.8183 14.6716 61.0757 15.3203 60.2052 16.6176C60.1881 17.3687 60.1795 18.4697 60.1795 19.9206C60.1795 20.7058 60.171 21.3118 60.1539 21.7386ZM55.2634 33.2608C55.7243 33.2608 56.1084 32.2537 56.4156 30.2394C56.7229 28.2422 56.9192 25.75 57.0045 22.7628C56.2705 24.4698 55.6901 26.0999 55.2634 27.6533C54.8367 29.2067 54.6233 30.5125 54.6233 31.5709C54.6233 32.1171 54.6916 32.5353 54.8281 32.8255C54.9476 33.1157 55.0927 33.2608 55.2634 33.2608Z" fill="#4F4F4F"/>
<path d="M82.0063 16.2079C82.2282 16.2079 82.3989 16.3189 82.5184 16.5408C82.6379 16.7627 82.6977 17.0443 82.6977 17.3857C82.6977 18.2051 82.4502 18.6916 81.9551 18.8452C80.9309 19.2037 79.8043 19.4085 78.5753 19.4597C78.2509 20.8936 77.6108 22.0458 76.6549 22.9164C75.699 23.7699 74.6151 24.1966 73.4031 24.1966C72.3789 24.1966 71.4998 23.9491 70.7658 23.4541C70.0488 22.9591 69.5026 22.3019 69.1271 21.4825C68.7515 20.6632 68.5638 19.7755 68.5638 18.8196C68.5638 17.5223 68.8113 16.3701 69.3063 15.3629C69.8013 14.3388 70.4841 13.545 71.3547 12.9817C72.2253 12.4013 73.1897 12.1111 74.248 12.1111C75.5454 12.1111 76.5866 12.5635 77.3718 13.4682C78.1741 14.3558 78.6436 15.4568 78.7801 16.7712C79.5824 16.72 80.5383 16.5493 81.6479 16.2591C81.7844 16.225 81.9039 16.2079 82.0063 16.2079ZM73.6079 21.4825C74.1542 21.4825 74.6236 21.2606 75.0162 20.8168C75.4259 20.373 75.699 19.7329 75.8355 18.8964C75.3064 18.538 74.8967 18.0685 74.6065 17.4882C74.3334 16.9078 74.1968 16.2933 74.1968 15.6446C74.1968 15.3715 74.2224 15.0984 74.2737 14.8252H74.1456C73.4628 14.8252 72.891 15.1581 72.4301 15.8238C71.9863 16.4725 71.7644 17.3943 71.7644 18.5892C71.7644 19.528 71.9436 20.245 72.3021 20.74C72.6776 21.235 73.1129 21.4825 73.6079 21.4825Z" fill="#4F4F4F"/>
<path d="M85.375 14.5692C85.3408 15.4227 85.3238 16.0884 85.3238 16.5664C85.3238 17.7954 85.3835 18.7599 85.503 19.4597C85.6396 20.1425 85.8529 20.6376 86.1431 20.9448C86.4504 21.235 86.8686 21.3801 87.3978 21.3801C87.6709 21.3801 87.9952 21.2948 88.3708 21.1241C88.7463 20.9534 89.0877 20.7314 89.395 20.4583C89.5827 20.2876 89.7705 20.2023 89.9583 20.2023C90.1631 20.2023 90.3253 20.3218 90.4448 20.5607C90.5813 20.7827 90.6496 21.0558 90.6496 21.3801C90.6496 21.7044 90.5813 22.0202 90.4448 22.3275C90.3253 22.6347 90.1375 22.8908 89.8814 23.0956C88.9938 23.8296 87.9867 24.1966 86.8601 24.1966C85.2384 24.1966 84.0521 23.5224 83.301 22.1739C82.5499 20.8083 82.1744 19.033 82.1744 16.848C82.1744 16.097 82.2 15.3373 82.2512 14.5692H81.2526C80.7405 14.5692 80.3906 14.4753 80.2028 14.2875C80.0321 14.0998 79.9467 13.801 79.9467 13.3914C79.9467 12.4355 80.3308 11.9575 81.099 11.9575H82.5584C82.8486 10.0798 83.2924 8.36427 83.8899 6.81091C84.4873 5.25754 85.2043 4.01997 86.0407 3.09819C86.8942 2.17642 87.8074 1.71553 88.7804 1.71553C89.4974 1.71553 90.0607 2.03132 90.4704 2.66291C90.88 3.2945 91.0849 4.08825 91.0849 5.04417C91.0849 7.69001 89.9753 9.99445 87.7562 11.9575H90.624C90.8971 11.9575 91.0934 12.0172 91.2129 12.1367C91.3324 12.2562 91.3921 12.4781 91.3921 12.8025C91.3921 13.9803 90.4277 14.5692 88.4988 14.5692H85.375ZM88.0891 4.1736C87.8331 4.1736 87.5429 4.49793 87.2185 5.14659C86.9113 5.77818 86.6126 6.66581 86.3224 7.8095C86.0492 8.93612 85.8188 10.1908 85.631 11.5734C86.6382 10.7029 87.3892 9.72987 87.8843 8.65446C88.3964 7.56199 88.6524 6.57193 88.6524 5.68429C88.6524 4.67717 88.4646 4.1736 88.0891 4.1736Z" fill="#4F4F4F"/>
<ellipse cx="96.7994" cy="20.868" rx="3.20061" ry="3.20061" fill="#9291E8"/>
</svg>
