<svg width="25" height="34" viewBox="0 0 25 34" fill="none" xmlns="http://www.w3.org/2000/svg">
<path opacity="0.8" d="M12.5 0C5.59264 0 0 5.59987 0 12.5C0 17.13 1.56191 18.5769 9.84837 31.8635C11.0714 33.8244 13.93 33.8221 15.1516 31.8635C23.4424 18.5699 25 17.1291 25 12.5C25 5.59264 19.4001 0 12.5 0ZM12.5 30.2083C4.20417 16.9066 3.125 16.0669 3.125 12.5C3.125 7.32233 7.32233 3.125 12.5 3.125C17.6777 3.125 21.875 7.32233 21.875 12.5C21.875 16.0516 20.8876 16.7594 12.5 30.2083ZM7.29167 12.5C7.29167 9.6235 9.6235 7.29167 12.5 7.29167C15.3765 7.29167 17.7083 9.6235 17.7083 12.5C17.7083 15.3765 15.3765 17.7083 12.5 17.7083C9.6235 17.7083 7.29167 15.3765 7.29167 12.5Z "/>
</svg>
