<svg width="115" height="226" viewBox="0 0 115 226" fill="none" xmlns="http://www.w3.org/2000/svg">
<path opacity="0.55" d="M57.4996 225.995C86.2053 225.995 109.476 222.248 109.476 217.626C109.476 213.004 86.2053 209.257 57.4996 209.257C28.794 209.257 5.52344 213.004 5.52344 217.626C5.52344 222.248 28.794 225.995 57.4996 225.995Z" fill="#221C58"/>
<path d="M67.1909 117.33H47.81C30.279 117.33 16.0957 103.058 16.0957 85.5274V38.0441H98.9052V85.5274C98.9052 103.058 84.7219 117.33 67.1909 117.33Z" fill="#9291E8"/>
<path d="M35.6969 86.6726V38.0441H16.0957V85.5274C16.0957 103.058 30.279 117.33 47.81 117.33H59.3505C45.7398 113.762 35.6969 101.385 35.6969 86.6726Z" fill="#9291E8"/>
<path d="M67.1909 117.33H47.81C30.279 117.33 16.0957 103.058 16.0957 85.5274V38.0441H98.9052V85.5274C98.9052 103.058 84.7219 117.33 67.1909 117.33Z" stroke="#041D31" stroke-width="2.64286" stroke-miterlimit="10" stroke-linecap="round" stroke-linejoin="round"/>
<path d="M93.3553 8.44407C69.7458 3.24645 45.2553 3.24645 21.6018 8.44407C18.3863 9.14883 16.0518 12.0119 16.0518 15.3155V37.956C43.2291 44.9155 71.6839 44.9155 98.8613 37.956V15.3155C98.9053 12.056 96.6149 9.19288 93.3553 8.44407Z" fill="#9291E8"/>
<path d="M93.3551 8.44407C92.5623 8.26788 91.7694 8.09169 90.9766 7.9155V39.806C93.6194 39.2774 96.2623 38.6607 98.9051 37.956V15.3155C98.9051 12.056 96.6147 9.19288 93.3551 8.44407Z" fill="#9291E8"/>
<path d="M35.6969 17.606C35.6969 13.1572 37.0183 9.0167 39.3088 5.53694C33.3624 6.19765 27.46 7.16669 21.6457 8.44407C18.4302 9.14883 16.0957 12.0119 16.0957 15.3155V37.956C22.5707 39.6298 29.1338 40.8631 35.6969 41.7441V17.606Z" fill="#9291E8"/>
<path d="M102.428 80.7703H98.9043V56.9846H102.428C105.335 56.9846 107.714 59.4953 107.714 62.4024V75.6167C107.714 78.5238 105.335 80.7703 102.428 80.7703Z" fill="#9291E8"/>
<path d="M102.428 80.7703H98.9043V56.9846H102.428C105.335 56.9846 107.714 59.4953 107.714 62.4024V75.6167C107.714 78.5238 105.335 80.7703 102.428 80.7703Z" stroke="#041D31" stroke-width="2.64286" stroke-miterlimit="10" stroke-linecap="round" stroke-linejoin="round"/>
<path d="M12.5718 80.7703H16.0957V56.9846H12.5718C9.6647 56.9846 7.28613 59.4953 7.28613 62.4024V75.6167C7.28613 78.5238 9.6647 80.7703 12.5718 80.7703Z" fill="#9291E8"/>
<path d="M12.5718 80.7703H16.0957V56.9846H12.5718C9.6647 56.9846 7.28613 59.4953 7.28613 62.4024V75.6167C7.28613 78.5238 9.6647 80.7703 12.5718 80.7703Z" stroke="#041D31" stroke-width="2.64286" stroke-miterlimit="10" stroke-linecap="round" stroke-linejoin="round"/>
<path d="M54.7246 104.248C55.3413 99.2703 59.8782 95.7024 64.8556 96.3191C66.0889 96.4512 67.2782 96.8917 68.2913 97.4643" stroke="#041D31" stroke-width="2.64286" stroke-miterlimit="10" stroke-linecap="round" stroke-linejoin="round"/>
<path d="M32.3926 171.2V210.843H56.1783V190.008C56.1783 188.775 57.1914 187.806 58.3807 187.806C59.614 187.806 60.5831 188.775 60.5831 190.008V210.843H84.3688V171.2H32.3926Z" fill="#2B323A"/>
<path opacity="0.8" d="M64.7675 210.843H60.583V187.806H61.1997C63.1818 187.806 64.7675 189.392 64.7675 191.374V210.843Z" fill="#252C33"/>
<g opacity="0.8">
<path opacity="0.8" d="M37.7664 171.2H32.3926V210.843H37.7664V171.2Z" fill="#252C33"/>
</g>
<path d="M32.3926 171.2V210.843H56.1783V190.008C56.1783 188.775 57.1914 187.806 58.3807 187.806C59.614 187.806 60.5831 188.775 60.5831 190.008V210.843H84.3688V171.2H32.3926Z" stroke="#041D31" stroke-width="2.64286" stroke-miterlimit="10" stroke-linecap="round" stroke-linejoin="round"/>
<path d="M92.2094 187.982C96.7098 187.982 100.358 184.334 100.358 179.833C100.358 175.333 96.7098 171.685 92.2094 171.685C87.7089 171.685 84.0605 175.333 84.0605 179.833C84.0605 184.334 87.7089 187.982 92.2094 187.982Z" fill="#9291E8"/>
<path d="M91.5487 180.538C91.2403 177.146 93.0903 174.063 95.9094 172.61C94.588 171.905 93.0463 171.596 91.4606 171.729C86.9677 172.125 83.6641 176.089 84.0606 180.582C84.457 185.075 88.4213 188.379 92.9142 187.982C94.0154 187.894 95.0284 187.586 95.9534 187.101C93.5308 185.824 91.813 183.445 91.5487 180.538Z" fill="#9291E8"/>
<path d="M92.2094 187.982C96.7098 187.982 100.358 184.334 100.358 179.833C100.358 175.333 96.7098 171.685 92.2094 171.685C87.7089 171.685 84.0605 175.333 84.0605 179.833C84.0605 184.334 87.7089 187.982 92.2094 187.982Z" stroke="#041D31" stroke-width="2.64286" stroke-miterlimit="10" stroke-linecap="round" stroke-linejoin="round"/>
<path d="M41.3784 84.2941C49.163 84.2941 55.4737 77.9834 55.4737 70.1988C55.4737 62.4143 49.163 56.1036 41.3784 56.1036C33.5939 56.1036 27.2832 62.4143 27.2832 70.1988C27.2832 77.9834 33.5939 84.2941 41.3784 84.2941Z" fill="white"/>
<path d="M41.3784 84.2941C49.163 84.2941 55.4737 77.9834 55.4737 70.1988C55.4737 62.4143 49.163 56.1036 41.3784 56.1036C33.5939 56.1036 27.2832 62.4143 27.2832 70.1988C27.2832 77.9834 33.5939 84.2941 41.3784 84.2941Z" stroke="#041D31" stroke-width="2.64286" stroke-miterlimit="10" stroke-linecap="round" stroke-linejoin="round"/>
<path d="M48.5583 76.806C51.964 76.806 54.7249 74.0451 54.7249 70.6393C54.7249 67.2336 51.964 64.4726 48.5583 64.4726C45.1525 64.4726 42.3916 67.2336 42.3916 70.6393C42.3916 74.0451 45.1525 76.806 48.5583 76.806Z" fill="#041D31"/>
<path d="M50.761 72.8417C51.9773 72.8417 52.9634 71.8556 52.9634 70.6393C52.9634 69.423 51.9773 68.4369 50.761 68.4369C49.5446 68.4369 48.5586 69.423 48.5586 70.6393C48.5586 71.8556 49.5446 72.8417 50.761 72.8417Z" fill="white"/>
<path d="M56.1783 210.843H32.3926V214.367C32.3926 215.82 33.5819 217.01 35.0354 217.01H53.5354C54.989 217.01 56.1783 215.82 56.1783 214.367V210.843Z" fill="#534741"/>
<path d="M37.7664 214.367V210.843H32.3926V214.367C32.3926 215.82 33.5819 217.01 35.0354 217.01H40.4093C38.9557 217.01 37.7664 215.82 37.7664 214.367Z" fill="#4C3E38"/>
<path d="M63.2259 217.01H81.7259C83.1794 217.01 84.3687 215.82 84.3687 214.367V210.843H60.583V214.367C60.583 215.82 61.7723 217.01 63.2259 217.01Z" fill="#534741"/>
<path d="M64.7675 214.367V210.843H60.583V214.367C60.583 215.82 61.7723 217.01 63.2259 217.01H67.4104C65.9568 217.01 64.7675 215.82 64.7675 214.367Z" fill="#4C3E38"/>
<path d="M56.1783 210.843H32.3926V214.367C32.3926 215.82 33.5819 217.01 35.0354 217.01H53.5354C54.989 217.01 56.1783 215.82 56.1783 214.367V210.843Z" stroke="#041D31" stroke-width="2.64286" stroke-miterlimit="10" stroke-linecap="round" stroke-linejoin="round"/>
<path d="M63.2259 217.01H81.7259C83.1794 217.01 84.3687 215.82 84.3687 214.367V210.843H60.583V214.367C60.583 215.82 61.7723 217.01 63.2259 217.01Z" stroke="#041D31" stroke-width="2.64286" stroke-miterlimit="10" stroke-linecap="round" stroke-linejoin="round"/>
<path d="M24.6402 188.775C29.1893 188.775 32.8771 185.087 32.8771 180.538C32.8771 175.989 29.1893 172.301 24.6402 172.301C20.0911 172.301 16.4033 175.989 16.4033 180.538C16.4033 185.087 20.0911 188.775 24.6402 188.775Z" fill="#9291E8"/>
<path d="M22.7908 179.833C23.0551 176.662 25.0813 174.107 27.8123 172.962C27.0635 172.654 26.2266 172.433 25.3456 172.345C20.8087 171.949 16.8004 175.296 16.4039 179.833C16.0075 184.37 19.3551 188.379 23.892 188.775C25.2575 188.907 26.623 188.643 27.8123 188.158C24.5968 186.793 22.4825 183.489 22.7908 179.833Z" fill="#9291E8"/>
<path d="M24.6402 188.775C29.1893 188.775 32.8771 185.087 32.8771 180.538C32.8771 175.989 29.1893 172.301 24.6402 172.301C20.0911 172.301 16.4033 175.989 16.4033 180.538C16.4033 185.087 20.0911 188.775 24.6402 188.775Z" stroke="#041D31" stroke-width="2.64286" stroke-miterlimit="10" stroke-linecap="round" stroke-linejoin="round"/>
<path d="M100.402 179.657L97.0546 141.38C96.4379 134.508 90.976 129.223 84.3689 128.386C84.3689 128.386 84.3689 128.386 84.3689 128.342C67.1022 126.183 49.6594 126.183 32.3927 128.342C32.3927 128.342 32.3927 128.342 32.3927 128.386C25.7415 129.179 20.3237 134.552 19.707 141.468L16.3594 179.745L32.1725 181.111L32.6129 175.957C49.7034 178.115 67.0141 178.115 84.1046 175.957L84.5451 181.067L100.402 179.657Z" fill="#FFAD57"/>
<path opacity="0.83" d="M97.0546 140.983C96.4379 134.068 90.976 128.782 84.3689 127.945C84.3689 127.945 84.3689 127.945 84.3689 127.901C67.1022 125.743 49.6594 125.743 32.3927 127.901C32.3927 127.901 32.3927 127.901 32.3927 127.945C25.7415 128.738 20.3237 134.112 19.707 141.027L16.3594 179.305L16.7999 179.349L19.707 145.873C20.3237 138.957 25.7415 133.583 32.3927 132.79C32.3927 132.79 32.3927 132.791 32.3927 132.746C37.326 132.13 42.2594 131.689 47.2368 131.425C48.1177 134.552 50.9808 136.843 54.3725 136.843H62.3891C65.7808 136.843 68.6439 134.552 69.5248 131.425C74.4582 131.689 79.4356 132.13 84.3689 132.746C84.3689 132.746 84.3689 132.746 84.3689 132.79C90.976 133.627 96.4379 138.913 97.0546 145.829L99.9618 179.305L100.402 179.261L97.0546 140.983Z" fill="#E89567"/>
<path d="M100.402 179.657L97.0546 141.38C96.4379 134.508 90.976 129.223 84.3689 128.386C84.3689 128.386 84.3689 128.386 84.3689 128.342C67.1022 126.183 49.6594 126.183 32.3927 128.342C32.3927 128.342 32.3927 128.342 32.3927 128.386C25.7415 129.179 20.3237 134.552 19.707 141.468L16.3594 179.745L32.1725 181.111L32.6129 175.957C48.7784 178.556 66.9701 178.688 84.1046 175.957L84.5451 181.067L100.402 179.657Z" stroke="#041D31" stroke-width="2.64286" stroke-miterlimit="10" stroke-linecap="round" stroke-linejoin="round"/>
<path d="M32.1729 181.111L35.1681 146.842" stroke="#041D31" stroke-width="2.64286" stroke-miterlimit="10" stroke-linecap="round" stroke-linejoin="round"/>
<path d="M84.1485 175.957L81.5938 146.842" stroke="#041D31" stroke-width="2.64286" stroke-miterlimit="10" stroke-linecap="round" stroke-linejoin="round"/>
<path d="M94.1475 5.00836C82.1225 2.3655 69.8332 1.00002 57.4999 1.00002C45.2106 1.00002 32.8772 2.32145 20.8522 5.00836C16.051 6.0655 12.5713 10.4262 12.5713 15.3155V23.4643L15.2141 23.9048C18.4737 24.4334 21.7772 24.8738 25.0368 25.3143L27.6356 16.8131H31.0713L31.5558 26.0191C34.5511 26.3274 37.5903 26.5476 40.6296 26.7238L41.6427 16.8131L43.0082 26.9C46.8403 27.1203 50.6725 27.2524 54.5046 27.2524L56.1784 17.6941L57.4999 27.2965L63.8868 25.7548L66.6177 12.6286L74.3701 26.7238C77.5856 26.5036 80.8011 26.2834 84.0165 25.931V15.6679L86.307 15.2274L90.0951 25.2262C92.0332 25.006 94.0153 24.7417 95.9534 24.4334C95.7332 19.8084 95.3808 11.175 96.0856 12.5405C96.7903 13.906 99.1689 20.3369 100.402 23.7286L102.384 23.4203V15.2714C102.428 10.4262 98.9487 6.0655 94.1475 5.00836Z" fill="#041D31"/>
<path d="M94.1475 5.00836C82.1225 2.3655 69.8332 1.00002 57.4999 1.00002C45.2106 1.00002 32.8772 2.32145 20.8522 5.00836C16.051 6.0655 12.5713 10.4262 12.5713 15.3155V23.4643L15.2141 23.9048C18.4737 24.4334 21.7772 24.8738 25.0368 25.3143L27.6356 16.8131H31.0713L31.5558 26.0191C34.5511 26.3274 37.5903 26.5476 40.6296 26.7238L41.6427 16.8131L43.0082 26.9C46.8403 27.1203 50.6725 27.2524 54.5046 27.2524L56.1784 17.6941L57.4999 27.2965L63.8868 25.7548L66.6177 12.6286L74.3701 26.7238C77.5856 26.5036 80.8011 26.2834 84.0165 25.931V15.6679L86.307 15.2274L90.0951 25.2262C92.0332 25.006 94.0153 24.7417 95.9534 24.4334C95.7332 19.8084 95.3808 11.175 96.0856 12.5405C96.7903 13.906 99.1689 20.3369 100.402 23.7286L102.384 23.4203V15.2714C102.428 10.4262 98.9487 6.0655 94.1475 5.00836Z" stroke="#041D31" stroke-width="0.880952" stroke-miterlimit="10" stroke-linecap="round" stroke-linejoin="round"/>
<path d="M93.3553 9.23693C69.7458 4.1274 45.2553 4.1274 21.6018 9.23693C18.3863 9.94169 16.0518 12.7167 16.0518 15.9762V38.0881C43.2291 44.9155 71.6839 44.9155 98.8613 38.0881V15.9762C98.9053 12.7607 96.6149 9.94169 93.3553 9.23693Z" stroke="#041D31" stroke-width="2.64286" stroke-miterlimit="10" stroke-linecap="round" stroke-linejoin="round"/>
<path d="M29.53 47.7346H29.2657C27.4157 47.7346 25.874 46.2369 25.874 44.3429V37.031C25.874 35.181 27.3716 33.6393 29.2657 33.6393H29.53C31.38 33.6393 32.9216 35.1369 32.9216 37.031V44.3429C32.9216 46.2369 31.38 47.7346 29.53 47.7346Z" fill="#BBBE93"/>
<path d="M29.53 47.7346H29.2657C27.4157 47.7346 25.874 46.2369 25.874 44.3429V37.031C25.874 35.181 27.3716 33.6393 29.2657 33.6393H29.53C31.38 33.6393 32.9216 35.1369 32.9216 37.031V44.3429C32.9216 46.2369 31.38 47.7346 29.53 47.7346Z" stroke="#041D31" stroke-width="2.64286" stroke-miterlimit="10" stroke-linecap="round" stroke-linejoin="round"/>
<path d="M46.9284 49.1441H46.6641C44.8141 49.1441 43.2725 47.6465 43.2725 45.7524V38.4405C43.2725 36.5905 44.7701 35.0488 46.6641 35.0488H46.9284C48.7784 35.0488 50.3201 36.5465 50.3201 38.4405V45.7524C50.3201 47.6465 48.7784 49.1441 46.9284 49.1441Z" fill="#BBBE93"/>
<path d="M46.9284 49.1441H46.6641C44.8141 49.1441 43.2725 47.6465 43.2725 45.7524V38.4405C43.2725 36.5905 44.7701 35.0488 46.6641 35.0488H46.9284C48.7784 35.0488 50.3201 36.5465 50.3201 38.4405V45.7524C50.3201 47.6465 48.7784 49.1441 46.9284 49.1441Z" stroke="#041D31" stroke-width="2.64286" stroke-miterlimit="10" stroke-linecap="round" stroke-linejoin="round"/>
<path d="M64.944 48.3953H64.6797C62.8297 48.3953 61.2881 46.8976 61.2881 45.0036V37.6917C61.2881 35.8417 62.7857 34.3 64.6797 34.3H64.944C66.794 34.3 68.3357 35.7977 68.3357 37.6917V45.0036C68.3357 46.8976 66.794 48.3953 64.944 48.3953Z" fill="#BBBE93"/>
<path d="M64.944 48.3953H64.6797C62.8297 48.3953 61.2881 46.8976 61.2881 45.0036V37.6917C61.2881 35.8417 62.7857 34.3 64.6797 34.3H64.944C66.794 34.3 68.3357 35.7977 68.3357 37.6917V45.0036C68.3357 46.8976 66.794 48.3953 64.944 48.3953Z" stroke="#041D31" stroke-width="2.64286" stroke-miterlimit="10" stroke-linecap="round" stroke-linejoin="round"/>
<path d="M83.6638 48.3953H83.3995C81.5495 48.3953 80.0078 46.8976 80.0078 45.0036V37.6917C80.0078 35.8417 81.5054 34.3 83.3995 34.3H83.6638C85.5138 34.3 87.0554 35.7977 87.0554 37.6917V45.0036C87.0554 46.8976 85.5138 48.3953 83.6638 48.3953Z" fill="#BBBE93"/>
<path d="M83.6638 48.3953H83.3995C81.5495 48.3953 80.0078 46.8976 80.0078 45.0036V37.6917C80.0078 35.8417 81.5054 34.3 83.3995 34.3H83.6638C85.5138 34.3 87.0554 35.7977 87.0554 37.6917V45.0036C87.0554 46.8976 85.5138 48.3953 83.6638 48.3953Z" stroke="#041D31" stroke-width="2.64286" stroke-miterlimit="10" stroke-linecap="round" stroke-linejoin="round"/>
<path d="M105.952 35.4012H98.9043V40.6869H105.952V35.4012Z" fill="#8A8D91"/>
<path d="M105.952 35.4012H98.9043V40.6869H105.952V35.4012Z" stroke="#041D31" stroke-width="2.64286" stroke-miterlimit="10" stroke-linecap="round" stroke-linejoin="round"/>
<path d="M110.181 45.0917H108.771C107.23 45.0917 105.952 43.8143 105.952 42.2726V33.8155C105.952 32.2738 107.23 30.9965 108.771 30.9965H110.181C111.722 30.9965 113 32.2738 113 33.8155V42.2726C113 43.8143 111.722 45.0917 110.181 45.0917Z" fill="#9DA0A5"/>
<path d="M110.181 45.0917H108.771C107.23 45.0917 105.952 43.8143 105.952 42.2726V33.8155C105.952 32.2738 107.23 30.9965 108.771 30.9965H110.181C111.722 30.9965 113 32.2738 113 33.8155V42.2726C113 43.8143 111.722 45.0917 110.181 45.0917Z" fill="#9DA0A5"/>
<path d="M111.414 35.0488H107.538C106.657 35.0488 105.952 34.3441 105.952 33.4631V32.5822C105.952 31.7012 106.657 30.9965 107.538 30.9965H111.414C112.295 30.9965 113 31.7012 113 32.5822V33.4631C113 34.3441 112.295 35.0488 111.414 35.0488Z" fill="#ADB3BC"/>
<path d="M110.181 45.0917H108.771C107.23 45.0917 105.952 43.8143 105.952 42.2726V33.8155C105.952 32.2738 107.23 30.9965 108.771 30.9965H110.181C111.722 30.9965 113 32.2738 113 33.8155V42.2726C113 43.8143 111.722 45.0917 110.181 45.0917Z" stroke="#041D31" stroke-width="2.64286" stroke-miterlimit="10" stroke-linecap="round" stroke-linejoin="round"/>
<path d="M9.04808 40.6869L16.0957 40.6869L16.0957 35.4012L9.04808 35.4012L9.04808 40.6869Z" fill="#686F77"/>
<path d="M9.04808 40.6869L16.0957 40.6869L16.0957 35.4012L9.04808 35.4012L9.04808 40.6869Z" stroke="#041D31" stroke-width="2.64286" stroke-miterlimit="10" stroke-linecap="round" stroke-linejoin="round"/>
<path d="M4.81904 45.0917H6.22857C7.77024 45.0917 9.04762 43.8143 9.04762 42.2726V33.8155C9.04762 32.2738 7.77024 30.9965 6.22857 30.9965H4.81904C3.27738 30.9965 2 32.2738 2 33.8155V42.2726C2 43.8143 3.27738 45.0917 4.81904 45.0917Z" fill="#727984"/>
<path d="M4.81904 45.0917H6.22857C7.77024 45.0917 9.04762 43.8143 9.04762 42.2726V33.8155C9.04762 32.2738 7.77024 30.9965 6.22857 30.9965H4.81904C3.27738 30.9965 2 32.2738 2 33.8155V42.2726C2 43.8143 3.27738 45.0917 4.81904 45.0917Z" fill="#727984"/>
<path d="M3.7619 35.0488H7.28571C8.25476 35.0488 9.04762 34.256 9.04762 33.2869V32.7584C9.04762 31.7893 8.25476 30.9965 7.28571 30.9965H3.7619C2.79286 30.9965 2 31.7893 2 32.7584V33.2869C2 34.3 2.79286 35.0488 3.7619 35.0488Z" fill="#ADB3BC"/>
<path d="M4.81904 45.0917H6.22857C7.77024 45.0917 9.04762 43.8143 9.04762 42.2726V33.8155C9.04762 32.2738 7.77024 30.9965 6.22857 30.9965H4.81904C3.27738 30.9965 2 32.2738 2 33.8155V42.2726C2 43.8143 3.27738 45.0917 4.81904 45.0917Z" stroke="#041D31" stroke-width="2.64286" stroke-miterlimit="10" stroke-linecap="round" stroke-linejoin="round"/>
<path d="M60.6714 133.187H56.0464C52.4785 133.187 49.5273 130.28 49.5273 126.668V117.33H67.1464V126.668C67.1905 130.28 64.2833 133.187 60.6714 133.187Z" fill="#9291E8"/>
<path d="M55.0772 126.668V117.33H49.5713V126.668C49.5713 130.236 52.4784 133.187 56.0903 133.187H60.7153C60.8475 133.187 61.0237 133.187 61.1558 133.143C57.7641 132.923 55.0772 130.148 55.0772 126.668Z" fill="#9291E8"/>
<path d="M60.6714 133.187H56.0464C52.4785 133.187 49.5273 130.28 49.5273 126.668V117.33H67.1464V126.668C67.1905 130.28 64.2833 133.187 60.6714 133.187Z" stroke="#041D31" stroke-width="2.64286" stroke-miterlimit="10" stroke-linecap="round" stroke-linejoin="round"/>
<path opacity="0.65" d="M71.1548 160.585L66.3096 170.716" stroke="#D8865D" stroke-width="1.32143" stroke-miterlimit="10" stroke-linecap="round" stroke-linejoin="round"/>
<path opacity="0.65" d="M72.4759 164.681L69.833 172.257" stroke="#D8865D" stroke-width="1.32143" stroke-miterlimit="10" stroke-linecap="round" stroke-linejoin="round"/>
<path d="M56.6193 160.585C55.8705 160.585 55.2979 160.012 55.2979 159.263V150.101C55.2979 149.352 55.8705 148.78 56.6193 148.78H62.5657C63.3145 148.78 63.8871 149.352 63.8871 150.101C63.8871 150.85 63.3145 151.423 62.5657 151.423H57.9407V159.263C57.9407 160.012 57.3681 160.585 56.6193 160.585Z" fill="#041D31"/>
<path d="M60.1432 156.136C58.8217 156.136 57.8086 155.96 57.0598 155.651C56.7515 155.475 56.5312 155.079 56.5312 154.726C56.5312 154.418 56.7515 153.977 57.0598 153.801C57.8086 153.493 58.8217 153.317 60.1432 153.317C61.0241 153.361 61.9051 154.066 61.9051 154.726C61.9051 155.387 61.0241 156.092 60.1432 156.136Z" fill="#041D31"/>
<path d="M72.6526 80.7703C79.2209 80.7703 84.5455 75.4457 84.5455 68.8774C84.5455 62.3092 79.2209 56.9846 72.6526 56.9846C66.0844 56.9846 60.7598 62.3092 60.7598 68.8774C60.7598 75.4457 66.0844 80.7703 72.6526 80.7703Z" fill="white"/>
<path d="M72.6526 80.7703C79.2209 80.7703 84.5455 75.4457 84.5455 68.8774C84.5455 62.3092 79.2209 56.9846 72.6526 56.9846C66.0844 56.9846 60.7598 62.3092 60.7598 68.8774C60.7598 75.4457 66.0844 80.7703 72.6526 80.7703Z" stroke="#041D31" stroke-width="2.64286" stroke-miterlimit="10" stroke-linecap="round" stroke-linejoin="round"/>
<path d="M66.5298 75.4845C69.2058 75.4845 71.375 73.3153 71.375 70.6393C71.375 67.9634 69.2058 65.7941 66.5298 65.7941C63.8539 65.7941 61.6846 67.9634 61.6846 70.6393C61.6846 73.3153 63.8539 75.4845 66.5298 75.4845Z" fill="#041D31"/>
<path d="M64.988 71.9607C65.8394 71.9607 66.5296 71.2705 66.5296 70.4191C66.5296 69.5676 65.8394 68.8774 64.988 68.8774C64.1365 68.8774 63.4463 69.5676 63.4463 70.4191C63.4463 71.2705 64.1365 71.9607 64.988 71.9607Z" fill="white"/>
</svg>
