<svg width="17" height="16" viewBox="0 0 17 16" fill="none" xmlns="http://www.w3.org/2000/svg">
<path d="M2.05096 12.8145L2.63201 12.1454C2.74765 12.0165 2.80809 11.8473 2.80035 11.6743V11.5644C2.80035 11.3203 2.67285 11.1875 2.42383 11.1875H0.53125C0.460802 11.1875 0.393239 11.2155 0.343425 11.2653C0.29361 11.3151 0.265625 11.3827 0.265625 11.4531V11.9844C0.265625 12.0548 0.29361 12.1224 0.343425 12.1722C0.393239 12.222 0.460802 12.25 0.53125 12.25H1.28928C1.16047 12.3798 1.03855 12.5162 0.924043 12.6587L0.737773 12.8912C0.604961 13.0595 0.563457 13.2275 0.644805 13.3852L0.679668 13.4493C0.779277 13.6405 0.888516 13.7109 1.08641 13.7109H1.24346C1.58645 13.7109 1.77271 13.792 1.77271 14.0128C1.77271 14.1695 1.63326 14.2857 1.29592 14.2857C1.11965 14.2843 0.94529 14.2491 0.782266 14.1821C0.566777 14.0533 0.392461 14.0659 0.264297 14.2857L0.0786914 14.5948C-0.0448242 14.7983 -0.0272266 14.9839 0.166016 15.1241C0.422012 15.2798 0.842695 15.4375 1.39453 15.4375C2.52875 15.4375 3.00488 14.6821 3.00488 13.9726C3.00389 13.4951 2.70207 12.9845 2.05096 12.8145ZM16.4688 6.9375H5.84375C5.70285 6.9375 5.56773 6.99347 5.4681 7.0931C5.36847 7.19273 5.3125 7.32785 5.3125 7.46875V8.53125C5.3125 8.67215 5.36847 8.80727 5.4681 8.9069C5.56773 9.00653 5.70285 9.0625 5.84375 9.0625H16.4688C16.6096 9.0625 16.7448 9.00653 16.8444 8.9069C16.944 8.80727 17 8.67215 17 8.53125V7.46875C17 7.32785 16.944 7.19273 16.8444 7.0931C16.7448 6.99347 16.6096 6.9375 16.4688 6.9375ZM16.4688 1.625H5.84375C5.70285 1.625 5.56773 1.68097 5.4681 1.7806C5.36847 1.88023 5.3125 2.01535 5.3125 2.15625V3.21875C5.3125 3.35965 5.36847 3.49477 5.4681 3.5944C5.56773 3.69403 5.70285 3.75 5.84375 3.75H16.4688C16.6096 3.75 16.7448 3.69403 16.8444 3.5944C16.944 3.49477 17 3.35965 17 3.21875V2.15625C17 2.01535 16.944 1.88023 16.8444 1.7806C16.7448 1.68097 16.6096 1.625 16.4688 1.625ZM16.4688 12.25H5.84375C5.70285 12.25 5.56773 12.306 5.4681 12.4056C5.36847 12.5052 5.3125 12.6404 5.3125 12.7812V13.8438C5.3125 13.9846 5.36847 14.1198 5.4681 14.2194C5.56773 14.319 5.70285 14.375 5.84375 14.375H16.4688C16.6096 14.375 16.7448 14.319 16.8444 14.2194C16.944 14.1198 17 13.9846 17 13.8438V12.7812C17 12.6404 16.944 12.5052 16.8444 12.4056C16.7448 12.306 16.6096 12.25 16.4688 12.25ZM0.53125 4.8125H2.65625C2.7267 4.8125 2.79426 4.78451 2.84408 4.7347C2.89389 4.68489 2.92188 4.61732 2.92188 4.54688V4.01562C2.92188 3.94518 2.89389 3.87761 2.84408 3.8278C2.79426 3.77799 2.7267 3.75 2.65625 3.75H2.125V0.828125C2.125 0.757677 2.09701 0.690114 2.0472 0.6403C1.99739 0.590485 1.92982 0.5625 1.85938 0.5625H1.0625C1.01327 0.562588 0.965024 0.576358 0.923161 0.602273C0.881298 0.628188 0.847462 0.665228 0.82543 0.709258L0.559805 1.24051C0.539558 1.28097 0.529981 1.32593 0.531984 1.37113C0.533987 1.41633 0.547502 1.46027 0.571248 1.49878C0.594994 1.5373 0.628183 1.56911 0.66767 1.59119C0.707156 1.61328 0.75163 1.62492 0.796875 1.625H1.0625V3.75H0.53125C0.460802 3.75 0.393239 3.77799 0.343425 3.8278C0.29361 3.87761 0.265625 3.94518 0.265625 4.01562V4.54688C0.265625 4.61732 0.29361 4.68489 0.343425 4.7347C0.393239 4.78451 0.460802 4.8125 0.53125 4.8125ZM0.401426 10.125H2.65625C2.7267 10.125 2.79426 10.097 2.84408 10.0472C2.89389 9.99739 2.92188 9.92982 2.92188 9.85938V9.32812C2.92188 9.25768 2.89389 9.19011 2.84408 9.1403C2.79426 9.09049 2.7267 9.0625 2.65625 9.0625H1.37195C1.48119 8.72084 2.97699 8.44227 2.97699 7.18852C2.97699 6.22363 2.14691 5.875 1.50045 5.875C0.79123 5.875 0.378184 6.20703 0.157051 6.49756C0.0119531 6.68316 0.0574414 6.85748 0.25002 7.00789L0.534902 7.23633C0.721172 7.38773 0.900137 7.31834 1.07014 7.15531C1.15399 7.07315 1.26684 7.02734 1.38424 7.02781C1.4948 7.02781 1.69236 7.07961 1.69236 7.31834C1.69336 7.74068 0 8.0435 0 9.61334V9.74615C0 9.99219 0.168672 10.125 0.401426 10.125Z" />
</svg>
