<svg width="15" height="14" viewBox="0 0 15 14" fill="none" xmlns="http://www.w3.org/2000/svg">
<path d="M13.5938 0.4375H9.84375C9.06738 0.4375 8.4375 1.06738 8.4375 1.84375V5.59375C8.4375 6.37012 9.06738 7 9.84375 7H12.1875V8.875C12.1875 9.90918 11.3467 10.75 10.3125 10.75H10.0781C9.68848 10.75 9.375 11.0635 9.375 11.4531V12.8594C9.375 13.249 9.68848 13.5625 10.0781 13.5625H10.3125C12.9023 13.5625 15 11.4648 15 8.875V1.84375C15 1.06738 14.3701 0.4375 13.5938 0.4375ZM5.15625 0.4375H1.40625C0.629883 0.4375 0 1.06738 0 1.84375V5.59375C0 6.37012 0.629883 7 1.40625 7H3.75V8.875C3.75 9.90918 2.90918 10.75 1.875 10.75H1.64062C1.25098 10.75 0.9375 11.0635 0.9375 11.4531V12.8594C0.9375 13.249 1.25098 13.5625 1.64062 13.5625H1.875C4.46484 13.5625 6.5625 11.4648 6.5625 8.875V1.84375C6.5625 1.06738 5.93262 0.4375 5.15625 0.4375Z" />
</svg>
