<svg width="15" height="16" viewBox="0 0 15 16" fill="none" xmlns="http://www.w3.org/2000/svg">
<path d="M8.68473 7.17712H14.6431C14.8402 7.17712 15 7.01731 15 6.82021V0.861851C15 0.664749 14.8402 0.504944 14.6431 0.504944H13.2155C13.0184 0.504944 12.8586 0.664749 12.8586 0.861851V3.18508C11.4972 1.67319 9.51969 0.727119 7.32129 0.74309C3.24939 0.772654 -0.00863743 4.06301 1.71661e-05 8.135C0.00867271 12.2013 3.30772 15.4951 7.37607 15.4951C9.28223 15.4951 11.0194 14.7719 12.3285 13.5852C12.4801 13.4477 12.4871 13.2118 12.3423 13.067L11.3321 12.0568C11.199 11.9237 10.9852 11.9165 10.8443 12.0412C9.92121 12.858 8.70713 13.3536 7.37607 13.3536C4.4831 13.3536 2.14143 11.0124 2.14143 8.11897C2.14143 5.22603 4.48263 2.88433 7.37607 2.88433C9.11588 2.88433 10.6561 3.73127 11.6076 5.03567H8.68473C8.48763 5.03567 8.32783 5.19548 8.32783 5.39258V6.82021C8.32783 7.01731 8.48763 7.17712 8.68473 7.17712Z" />
</svg>
