<svg width="20" height="14" viewBox="0 0 20 14" fill="none" xmlns="http://www.w3.org/2000/svg">
<path d="M16.944 6.112C16.507 2.67 13.559 0 10 0C7.244 0 4.85 1.611 3.757 4.15C1.609 4.792 0 6.82 0 9C0 11.757 2.243 14 5 14H6V12H5C3.346 12 2 10.654 2 9C2 7.596 3.199 6.243 4.673 5.984L5.254 5.882L5.446 5.324C6.149 3.273 7.894 2 10 2C12.757 2 15 4.243 15 7V8H16C17.103 8 18 8.897 18 10C18 11.103 17.103 12 16 12H14V14H16C18.206 14 20 12.206 20 10C20 8.119 18.695 6.538 16.944 6.112Z" />
<path d="M11 8.99988V4.99988H9V8.99988H6L10 13.9999L14 8.99988H11Z" />
</svg>
