<svg width="20" height="20" viewBox="0 0 20 20" fill="none" xmlns="http://www.w3.org/2000/svg">
<path d="M16.2498 7.50022C17.0112 7.50024 17.7547 7.26846 18.3812 6.8357C19.0077 6.40294 19.4877 5.7897 19.7572 5.07753C20.0267 4.36537 20.0731 3.58802 19.8901 2.84888C19.7071 2.10973 19.3034 1.4438 18.7328 0.939654C18.1621 0.435505 17.4515 0.117023 16.6954 0.0265609C15.9393 -0.0639011 15.1736 0.0779434 14.5001 0.433232C13.8266 0.78852 13.2773 1.34042 12.9251 2.01553C12.5728 2.69064 12.4345 3.45697 12.5284 4.21262L6.35324 7.30021C5.82351 6.78939 5.1552 6.44571 4.43155 6.31199C3.7079 6.17827 2.9609 6.26041 2.2836 6.54819C1.6063 6.83597 1.02864 7.31667 0.622579 7.9304C0.216517 8.54413 0 9.26377 0 9.99967C0 10.7356 0.216517 11.4552 0.622579 12.0689C1.02864 12.6827 1.6063 13.1634 2.2836 13.4511C2.9609 13.7389 3.7079 13.8211 4.43155 13.6873C5.1552 13.5536 5.82351 13.2099 6.35324 12.6991L12.5284 15.7867C12.419 16.6645 12.6235 17.5528 13.1057 18.2944C13.5878 19.0361 14.3166 19.5834 15.1633 19.8397C16.01 20.096 16.92 20.0447 17.7325 19.6949C18.5451 19.3451 19.2078 18.7194 19.6036 17.9283C19.9994 17.1371 20.1027 16.2315 19.8954 15.3716C19.6881 14.5116 19.1835 13.7526 18.4707 13.2287C17.7579 12.7048 16.8828 12.4497 16.0002 12.5086C15.1175 12.5675 14.2841 12.9365 13.6472 13.5504L7.47202 10.4628C7.50985 10.1556 7.50985 9.84496 7.47202 9.53778L13.6472 6.45019C14.3197 7.10021 15.2372 7.50022 16.2498 7.50022Z" />
</svg>
