<svg width="12" height="14" viewBox="0 0 12 14" fill="none" xmlns="http://www.w3.org/2000/svg">
<path d="M0.857143 1.85717H1.71429V6.14288C1.71429 8.50592 3.63696 10.4286 6 10.4286C8.36304 10.4286 10.2857 8.50592 10.2857 6.14288V1.85717H11.1429C11.2565 1.85717 11.3655 1.81202 11.4459 1.73164C11.5263 1.65127 11.5714 1.54226 11.5714 1.4286V0.571455C11.5714 0.45779 11.5263 0.348782 11.4459 0.268409C11.3655 0.188036 11.2565 0.142883 11.1429 0.142883H7.28571C7.17205 0.142883 7.06304 0.188036 6.98267 0.268409C6.9023 0.348782 6.85714 0.45779 6.85714 0.571455V1.4286C6.85714 1.54226 6.9023 1.65127 6.98267 1.73164C7.06304 1.81202 7.17205 1.85717 7.28571 1.85717H8.14286V6.14288C8.14286 6.7112 7.91709 7.25625 7.51523 7.65811C7.11337 8.05998 6.56832 8.28574 6 8.28574C5.43168 8.28574 4.88663 8.05998 4.48477 7.65811C4.08291 7.25625 3.85714 6.7112 3.85714 6.14288V1.85717H4.71429C4.82795 1.85717 4.93696 1.81202 5.01733 1.73164C5.0977 1.65127 5.14286 1.54226 5.14286 1.4286V0.571455C5.14286 0.45779 5.0977 0.348782 5.01733 0.268409C4.93696 0.188036 4.82795 0.142883 4.71429 0.142883H0.857143C0.743479 0.142883 0.63447 0.188036 0.554097 0.268409C0.473724 0.348782 0.428571 0.45779 0.428571 0.571455V1.4286C0.428571 1.54226 0.473724 1.65127 0.554097 1.73164C0.63447 1.81202 0.743479 1.85717 0.857143 1.85717ZM11.5714 12.1429H0.428571C0.314907 12.1429 0.205898 12.188 0.125526 12.2684C0.0451529 12.3488 0 12.4578 0 12.5715V13.4286C0 13.5423 0.0451529 13.6513 0.125526 13.7316C0.205898 13.812 0.314907 13.8572 0.428571 13.8572H11.5714C11.6851 13.8572 11.7941 13.812 11.8745 13.7316C11.9548 13.6513 12 13.5423 12 13.4286V12.5715C12 12.4578 11.9548 12.3488 11.8745 12.2684C11.7941 12.188 11.6851 12.1429 11.5714 12.1429Z" />
</svg>
