<svg width="15" height="16" viewBox="0 0 15 16" fill="none" xmlns="http://www.w3.org/2000/svg">
<path d="M6.31527 7.17712H0.356907C0.159805 7.17712 0 7.01731 0 6.82021V0.861851C0 0.664749 0.159805 0.504944 0.356907 0.504944H1.78454C1.98164 0.504944 2.14144 0.664749 2.14144 0.861851V3.18508C3.50284 1.67319 5.48031 0.727119 7.67871 0.74309C11.7506 0.772654 15.0086 4.06301 15 8.135C14.9913 12.2013 11.6923 15.4951 7.62393 15.4951C5.71777 15.4951 3.98062 14.7719 2.67154 13.5852C2.51988 13.4477 2.5129 13.2118 2.65765 13.067L3.66791 12.0568C3.80097 11.9237 4.01476 11.9165 4.15571 12.0412C5.07879 12.858 6.29287 13.3536 7.62393 13.3536C10.5169 13.3536 12.8586 11.0124 12.8586 8.11897C12.8586 5.22603 10.5174 2.88433 7.62393 2.88433C5.88412 2.88433 4.34395 3.73127 3.39237 5.03567H6.31527C6.51237 5.03567 6.67217 5.19548 6.67217 5.39258V6.82021C6.67217 7.01731 6.51237 7.17712 6.31527 7.17712Z" />
</svg>
