<svg width="17" height="14" viewBox="0 0 17 14" fill="none" xmlns="http://www.w3.org/2000/svg">
<path d="M1.59375 0.09375C1.27854 0.09375 0.970401 0.187222 0.708311 0.362345C0.44622 0.537469 0.241945 0.786379 0.121318 1.0776C0.00069055 1.36882 -0.030871 1.68927 0.0306242 1.99843C0.0921194 2.30758 0.243909 2.59156 0.466799 2.81445C0.689689 3.03734 0.973668 3.18913 1.28283 3.25063C1.59198 3.31212 1.91243 3.28056 2.20365 3.15993C2.49487 3.03931 2.74378 2.83503 2.91891 2.57294C3.09403 2.31085 3.1875 2.00271 3.1875 1.6875C3.1875 1.26481 3.01959 0.859435 2.7207 0.560549C2.42182 0.261663 2.01644 0.09375 1.59375 0.09375ZM1.59375 5.40625C1.27854 5.40625 0.970401 5.49972 0.708311 5.67485C0.44622 5.84997 0.241945 6.09888 0.121318 6.3901C0.00069055 6.68132 -0.030871 7.00177 0.0306242 7.31093C0.0921194 7.62008 0.243909 7.90406 0.466799 8.12695C0.689689 8.34984 0.973668 8.50163 1.28283 8.56313C1.59198 8.62462 1.91243 8.59306 2.20365 8.47243C2.49487 8.35181 2.74378 8.14753 2.91891 7.88544C3.09403 7.62335 3.1875 7.31521 3.1875 7C3.1875 6.57731 3.01959 6.17193 2.7207 5.87305C2.42182 5.57416 2.01644 5.40625 1.59375 5.40625ZM1.59375 10.7188C1.27854 10.7188 0.970401 10.8122 0.708311 10.9873C0.44622 11.1625 0.241945 11.4114 0.121318 11.7026C0.00069055 11.9938 -0.030871 12.3143 0.0306242 12.6234C0.0921194 12.9326 0.243909 13.2166 0.466799 13.4395C0.689689 13.6623 0.973668 13.8141 1.28283 13.8756C1.59198 13.9371 1.91243 13.9056 2.20365 13.7849C2.49487 13.6643 2.74378 13.46 2.91891 13.1979C3.09403 12.9358 3.1875 12.6277 3.1875 12.3125C3.1875 11.8898 3.01959 11.4844 2.7207 11.1855C2.42182 10.8867 2.01644 10.7188 1.59375 10.7188ZM16.4688 11.25H5.84375C5.70285 11.25 5.56773 11.306 5.4681 11.4056C5.36847 11.5052 5.3125 11.6404 5.3125 11.7812V12.8438C5.3125 12.9846 5.36847 13.1198 5.4681 13.2194C5.56773 13.319 5.70285 13.375 5.84375 13.375H16.4688C16.6096 13.375 16.7448 13.319 16.8444 13.2194C16.944 13.1198 17 12.9846 17 12.8438V11.7812C17 11.6404 16.944 11.5052 16.8444 11.4056C16.7448 11.306 16.6096 11.25 16.4688 11.25ZM16.4688 0.625H5.84375C5.70285 0.625 5.56773 0.680971 5.4681 0.7806C5.36847 0.880228 5.3125 1.01535 5.3125 1.15625V2.21875C5.3125 2.35965 5.36847 2.49477 5.4681 2.5944C5.56773 2.69403 5.70285 2.75 5.84375 2.75H16.4688C16.6096 2.75 16.7448 2.69403 16.8444 2.5944C16.944 2.49477 17 2.35965 17 2.21875V1.15625C17 1.01535 16.944 0.880228 16.8444 0.7806C16.7448 0.680971 16.6096 0.625 16.4688 0.625ZM16.4688 5.9375H5.84375C5.70285 5.9375 5.56773 5.99347 5.4681 6.0931C5.36847 6.19273 5.3125 6.32785 5.3125 6.46875V7.53125C5.3125 7.67215 5.36847 7.80727 5.4681 7.9069C5.56773 8.00653 5.70285 8.0625 5.84375 8.0625H16.4688C16.6096 8.0625 16.7448 8.00653 16.8444 7.9069C16.944 7.80727 17 7.67215 17 7.53125V6.46875C17 6.32785 16.944 6.19273 16.8444 6.0931C16.7448 5.99347 16.6096 5.9375 16.4688 5.9375Z" />
</svg>
