<svg width="160" height="112" viewBox="0 0 160 112" fill="none" xmlns="http://www.w3.org/2000/svg">
<path d="M134.4 48.65C135.425 45.975 136 43.05 136 40C136 26.75 125.25 16 112 16C107.075 16 102.475 17.5 98.675 20.05C91.75 8.05 78.825 0 64 0C41.9 0 24 17.9 24 40C24 40.675 24.025 41.35 24.05 42.025C10.05 46.95 0 60.3 0 76C0 95.875 16.125 112 36 112H128C145.675 112 160 97.675 160 80C160 64.525 149 51.6 134.4 48.65ZM98.35 64H82V92C82 94.2 80.2 96 78 96H66C63.8 96 62 94.2 62 92V64H45.65C42.075 64 40.3 59.7 42.825 57.175L69.175 30.825C70.725 29.275 73.275 29.275 74.825 30.825L101.175 57.175C103.7 59.7 101.9 64 98.35 64Z" />
</svg>
